<svg version="1.1"
     baseProfile="full"
     width="300" height="200"
     xmlns="http://www.w3.org/2000/svg">
	<polygon style="stroke:red;fill:white" points=" 0.00000E+00, 0.00000E+00  7.50000E+00, 0.00000E+00  7.50000E+00, 3.00000E+00  1.25000E+01, 3.00000E+00  1.25000E+01, 0.00000E+00  1.75000E+01, 0.00000E+00  1.75000E+01, 3.00000E+00  2.25000E+01, 3.00000E+00  3.00000E+01, 0.00000E+00  3.00000E+01, 7.50000E+00  2.70000E+01, 7.50000E+00  2.70000E+01, 1.25000E+01  3.00000E+01, 1.25000E+01  3.00000E+01, 1.75000E+01  2.70000E+01, 1.75000E+01  2.70000E+01, 2.25000E+01  3.00000E+01, 3.00000E+01  2.25000E+01, 3.00000E+01  2.25000E+01, 2.70000E+01  1.75000E+01, 2.70000E+01  1.75000E+01, 3.00000E+01  1.25000E+01, 3.00000E+01  1.25000E+01, 2.70000E+01  7.50000E+00, 2.70000E+01  0.00000E+00, 3.00000E+01  0.00000E+00, 2.25000E+01  3.00000E+00, 2.25000E+01  3.00000E+00, 1.75000E+01  0.00000E+00, 1.75000E+01  0.00000E+00, 1.25000E+01  3.00000E+00, 1.25000E+01  3.00000E+00, 7.50000E+00 "/>
	<polygon style="stroke:red;fill:white" points=""/>
	<polygon style="stroke:red;fill:white" points=""/>
	<polygon style="stroke:red;fill:white" points=""/>
	<polygon style="stroke:red;fill:white" points=""/>
	<polygon style="stroke:red;fill:white" points=" 0.00000E+00, 4.00000E+01  4.50000E+00, 4.00000E+01  4.50000E+00, 4.30000E+01  9.50000E+00, 4.30000E+01  9.50000E+00, 4.00000E+01  1.45000E+01, 4.00000E+01  1.45000E+01, 4.30000E+01  1.95000E+01, 4.30000E+01  2.40000E+01, 4.00000E+01  2.40000E+01, 4.45000E+01  2.10000E+01, 4.45000E+01  2.10000E+01, 4.95000E+01  2.40000E+01, 4.95000E+01  2.40000E+01, 5.45000E+01  2.10000E+01, 5.45000E+01  2.10000E+01, 5.95000E+01  2.40000E+01, 6.40000E+01  1.95000E+01, 6.40000E+01  1.95000E+01, 6.10000E+01  1.45000E+01, 6.10000E+01  1.45000E+01, 6.40000E+01  9.50000E+00, 6.40000E+01  9.50000E+00, 6.10000E+01  4.50000E+00, 6.10000E+01  0.00000E+00, 6.40000E+01  0.00000E+00, 5.95000E+01  3.00000E+00, 5.95000E+01  3.00000E+00, 5.45000E+01  0.00000E+00, 5.45000E+01  0.00000E+00, 4.95000E+01  3.00000E+00, 4.95000E+01  3.00000E+00, 4.45000E+01 "/>
	<polygon style="stroke:red;fill:white" points=""/>
	<polygon style="stroke:red;fill:white" points=""/>
	<polygon style="stroke:red;fill:white" points=""/>
	<polygon style="stroke:red;fill:white" points=""/>
	<polygon style="stroke:red;fill:white" points=" 0.00000E+00, 9.00000E+01  7.50000E+00, 9.00000E+01  7.50000E+00, 9.30000E+01  1.25000E+01, 9.30000E+01  1.25000E+01, 9.00000E+01  1.75000E+01, 9.00000E+01  1.75000E+01, 9.30000E+01  2.25000E+01, 9.30000E+01  3.00000E+01, 9.00000E+01  3.00000E+01, 9.75000E+01  2.70000E+01, 9.75000E+01  2.70000E+01, 1.02500E+02  3.00000E+01, 1.02500E+02  3.00000E+01, 1.07500E+02  2.70000E+01, 1.07500E+02  2.70000E+01, 1.12500E+02  3.00000E+01, 1.20000E+02  2.25000E+01, 1.20000E+02  2.25000E+01, 1.17000E+02  1.75000E+01, 1.17000E+02  1.75000E+01, 1.20000E+02  1.25000E+01, 1.20000E+02  1.25000E+01, 1.17000E+02  7.50000E+00, 1.17000E+02  0.00000E+00, 1.20000E+02  0.00000E+00, 1.12500E+02  3.00000E+00, 1.12500E+02  3.00000E+00, 1.07500E+02  0.00000E+00, 1.07500E+02  0.00000E+00, 1.02500E+02  3.00000E+00, 1.02500E+02  3.00000E+00, 9.75000E+01 "/>
	<polygon style="stroke:red;fill:white" points=""/>
	<polygon style="stroke:red;fill:white" points=""/>
	<polygon style="stroke:red;fill:white" points=""/>
	<polygon style="stroke:red;fill:white" points=""/>
</svg>
