<svg version="1.1"
     baseProfile="full"
     xmlns="http://www.w3.org/2000/svg">
	<polygon style="stroke:red;fill:white" points=" 0.00000E+00, 0.00000E+00  7.50000E+00, 0.00000E+00  7.50000E+00, 3.00000E+00  1.25000E+01, 3.00000E+00  1.25000E+01, 0.00000E+00  1.75000E+01, 0.00000E+00  1.75000E+01, 3.00000E+00  2.25000E+01, 3.00000E+00  2.25000E+01, 0.00000E+00  2.75000E+01, 0.00000E+00  2.75000E+01, 3.00000E+00  3.25000E+01, 3.00000E+00  3.25000E+01, 0.00000E+00  3.75000E+01, 0.00000E+00  3.75000E+01, 3.00000E+00  4.25000E+01, 3.00000E+00  4.25000E+01, 0.00000E+00  5.00000E+01, 0.00000E+00  5.00000E+01, 7.50000E+00  4.70000E+01, 7.50000E+00  4.70000E+01, 1.25000E+01  5.00000E+01, 1.25000E+01  5.00000E+01, 1.75000E+01  4.70000E+01, 1.75000E+01  4.70000E+01, 2.25000E+01  5.00000E+01, 2.25000E+01  5.00000E+01, 3.00000E+01  4.25000E+01, 3.00000E+01  4.25000E+01, 2.70000E+01  3.75000E+01, 2.70000E+01  3.75000E+01, 3.00000E+01  3.25000E+01, 3.00000E+01  3.25000E+01, 2.70000E+01  2.75000E+01, 2.70000E+01  2.75000E+01, 3.00000E+01  2.25000E+01, 3.00000E+01  2.25000E+01, 2.70000E+01  1.75000E+01, 2.70000E+01  1.75000E+01, 3.00000E+01  1.25000E+01, 3.00000E+01  1.25000E+01, 2.70000E+01  7.50000E+00, 2.70000E+01  7.50000E+00, 3.00000E+01  0.00000E+00, 3.00000E+01  0.00000E+00, 2.25000E+01  3.00000E+00, 2.25000E+01  3.00000E+00, 1.75000E+01  0.00000E+00, 1.75000E+01  0.00000E+00, 1.25000E+01  3.00000E+00, 1.25000E+01  3.00000E+00, 7.50000E+00  0.00000E+00, 7.50000E+00 "/>
	<polygon style="stroke:red;fill:white" points=" 5.80000E+01, 0.00000E+00  1.02000E+02, 0.00000E+00  1.02000E+02, 7.50000E+00  9.90000E+01, 7.50000E+00  9.90000E+01, 1.25000E+01  1.02000E+02, 1.25000E+01  1.02000E+02, 1.75000E+01  9.90000E+01, 1.75000E+01  9.90000E+01, 2.25000E+01  9.90000E+01, 3.00000E+01  9.45000E+01, 3.00000E+01  9.45000E+01, 2.70000E+01  8.95000E+01, 2.70000E+01  8.95000E+01, 3.00000E+01  8.45000E+01, 3.00000E+01  8.45000E+01, 2.70000E+01  7.95000E+01, 2.70000E+01  7.95000E+01, 3.00000E+01  7.45000E+01, 3.00000E+01  7.45000E+01, 2.70000E+01  6.95000E+01, 2.70000E+01  6.95000E+01, 3.00000E+01  6.45000E+01, 3.00000E+01  6.45000E+01, 2.70000E+01  5.95000E+01, 2.70000E+01  5.95000E+01, 3.00000E+01  5.50000E+01, 3.00000E+01  5.50000E+01, 2.25000E+01  5.80000E+01, 2.25000E+01  5.80000E+01, 1.75000E+01  5.50000E+01, 1.75000E+01  5.50000E+01, 1.25000E+01  5.80000E+01, 1.25000E+01  5.80000E+01, 7.50000E+00  5.50000E+01, 7.50000E+00 "/>
	<polygon style="stroke:red;fill:white" points=" 1.13000E+02, 0.00000E+00  1.57000E+02, 0.00000E+00  1.57000E+02, 7.50000E+00  1.54000E+02, 7.50000E+00  1.54000E+02, 1.25000E+01  1.57000E+02, 1.25000E+01  1.57000E+02, 1.75000E+01  1.54000E+02, 1.75000E+01  1.54000E+02, 2.25000E+01  1.54000E+02, 3.00000E+01  1.49500E+02, 3.00000E+01  1.49500E+02, 2.70000E+01  1.44500E+02, 2.70000E+01  1.44500E+02, 3.00000E+01  1.39500E+02, 3.00000E+01  1.39500E+02, 2.70000E+01  1.34500E+02, 2.70000E+01  1.34500E+02, 3.00000E+01  1.29500E+02, 3.00000E+01  1.29500E+02, 2.70000E+01  1.24500E+02, 2.70000E+01  1.24500E+02, 3.00000E+01  1.19500E+02, 3.00000E+01  1.19500E+02, 2.70000E+01  1.14500E+02, 2.70000E+01  1.14500E+02, 3.00000E+01  1.10000E+02, 3.00000E+01  1.10000E+02, 2.25000E+01  1.13000E+02, 2.25000E+01  1.13000E+02, 1.75000E+01  1.10000E+02, 1.75000E+01  1.10000E+02, 1.25000E+01  1.13000E+02, 1.25000E+01  1.13000E+02, 7.50000E+00  1.10000E+02, 7.50000E+00 "/>
	<polygon style="stroke:red;fill:white" points=" 1.58000E+02, 1.00000E+01  1.82000E+02, 1.00000E+01  1.82000E+02, 2.20000E+01  1.85000E+02, 2.20000E+01  1.85000E+02, 2.70000E+01  1.82000E+02, 2.70000E+01  1.82000E+02, 3.20000E+01  1.85000E+02, 3.20000E+01  1.85000E+02, 3.70000E+01  1.77500E+02, 3.70000E+01  1.77500E+02, 4.00000E+01  1.72500E+02, 4.00000E+01  1.72500E+02, 3.70000E+01  1.67500E+02, 3.70000E+01  1.67500E+02, 4.00000E+01  1.62500E+02, 4.00000E+01  1.62500E+02, 3.70000E+01  1.55000E+02, 3.70000E+01  1.52000E+02, 3.70000E+01  1.52000E+02, 3.20000E+01  1.55000E+02, 3.20000E+01  1.55000E+02, 2.70000E+01  1.52000E+02, 2.70000E+01  1.52000E+02, 2.20000E+01  1.55000E+02, 2.20000E+01 "/>
	<polygon style="stroke:red;fill:white" points=" 1.93000E+02, 1.00000E+01  2.17000E+02, 1.00000E+01  2.17000E+02, 2.20000E+01  2.20000E+02, 2.20000E+01  2.20000E+02, 2.70000E+01  2.17000E+02, 2.70000E+01  2.17000E+02, 3.20000E+01  2.20000E+02, 3.20000E+01  2.20000E+02, 3.70000E+01  2.12500E+02, 3.70000E+01  2.12500E+02, 4.00000E+01  2.07500E+02, 4.00000E+01  2.07500E+02, 3.70000E+01  2.02500E+02, 3.70000E+01  2.02500E+02, 4.00000E+01  1.97500E+02, 4.00000E+01  1.97500E+02, 3.70000E+01  1.90000E+02, 3.70000E+01  1.87000E+02, 3.70000E+01  1.87000E+02, 3.20000E+01  1.90000E+02, 3.20000E+01  1.90000E+02, 2.70000E+01  1.87000E+02, 2.70000E+01  1.87000E+02, 2.20000E+01  1.90000E+02, 2.20000E+01 "/>
	<polygon style="stroke:red;fill:white" points=" 0.00000E+00, 4.00000E+01  4.50000E+00, 4.00000E+01  4.50000E+00, 4.30000E+01  9.50000E+00, 4.30000E+01  9.50000E+00, 4.00000E+01  1.45000E+01, 4.00000E+01  1.45000E+01, 4.30000E+01  1.95000E+01, 4.30000E+01  1.95000E+01, 4.00000E+01  2.45000E+01, 4.00000E+01  2.45000E+01, 4.30000E+01  2.95000E+01, 4.30000E+01  2.95000E+01, 4.00000E+01  3.45000E+01, 4.00000E+01  3.45000E+01, 4.30000E+01  3.95000E+01, 4.30000E+01  3.95000E+01, 4.00000E+01  4.40000E+01, 4.00000E+01  4.40000E+01, 4.45000E+01  4.10000E+01, 4.45000E+01  4.10000E+01, 4.95000E+01  4.40000E+01, 4.95000E+01  4.40000E+01, 5.45000E+01  4.10000E+01, 5.45000E+01  4.10000E+01, 5.95000E+01  4.40000E+01, 5.95000E+01  4.40000E+01, 6.40000E+01  3.95000E+01, 6.40000E+01  3.95000E+01, 6.10000E+01  3.45000E+01, 6.10000E+01  3.45000E+01, 6.40000E+01  2.95000E+01, 6.40000E+01  2.95000E+01, 6.10000E+01  2.45000E+01, 6.10000E+01  2.45000E+01, 6.40000E+01  1.95000E+01, 6.40000E+01  1.95000E+01, 6.10000E+01  1.45000E+01, 6.10000E+01  1.45000E+01, 6.40000E+01  9.50000E+00, 6.40000E+01  9.50000E+00, 6.10000E+01  4.50000E+00, 6.10000E+01  4.50000E+00, 6.40000E+01  0.00000E+00, 6.40000E+01  0.00000E+00, 5.95000E+01  3.00000E+00, 5.95000E+01  3.00000E+00, 5.45000E+01  0.00000E+00, 5.45000E+01  0.00000E+00, 4.95000E+01  3.00000E+00, 4.95000E+01  3.00000E+00, 4.45000E+01  0.00000E+00, 4.45000E+01 "/>
	<polygon style="stroke:red;fill:white" points=" 5.20000E+01, 4.00000E+01  9.00000E+01, 4.00000E+01  9.00000E+01, 4.75000E+01  8.70000E+01, 4.75000E+01  8.70000E+01, 5.25000E+01  9.00000E+01, 5.25000E+01  9.00000E+01, 5.75000E+01  8.70000E+01, 5.75000E+01  8.70000E+01, 6.25000E+01  9.00000E+01, 6.25000E+01  9.00000E+01, 6.75000E+01  8.70000E+01, 6.75000E+01  8.70000E+01, 7.25000E+01  8.70000E+01, 8.00000E+01  8.55000E+01, 8.00000E+01  8.55000E+01, 7.70000E+01  8.05000E+01, 7.70000E+01  8.05000E+01, 8.00000E+01  7.55000E+01, 8.00000E+01  7.55000E+01, 7.70000E+01  7.05000E+01, 7.70000E+01  7.05000E+01, 8.00000E+01  6.55000E+01, 8.00000E+01  6.55000E+01, 7.70000E+01  6.05000E+01, 7.70000E+01  6.05000E+01, 8.00000E+01  5.55000E+01, 8.00000E+01  5.55000E+01, 7.70000E+01  5.05000E+01, 7.70000E+01  5.05000E+01, 8.00000E+01  4.90000E+01, 8.00000E+01  4.90000E+01, 7.25000E+01  5.20000E+01, 7.25000E+01  5.20000E+01, 6.75000E+01  4.90000E+01, 6.75000E+01  4.90000E+01, 6.25000E+01  5.20000E+01, 6.25000E+01  5.20000E+01, 5.75000E+01  4.90000E+01, 5.75000E+01  4.90000E+01, 5.25000E+01  5.20000E+01, 5.25000E+01  5.20000E+01, 4.75000E+01  4.90000E+01, 4.75000E+01 "/>
	<polygon style="stroke:red;fill:white" points=" 1.01000E+02, 4.00000E+01  1.39000E+02, 4.00000E+01  1.39000E+02, 4.75000E+01  1.36000E+02, 4.75000E+01  1.36000E+02, 5.25000E+01  1.39000E+02, 5.25000E+01  1.39000E+02, 5.75000E+01  1.36000E+02, 5.75000E+01  1.36000E+02, 6.25000E+01  1.39000E+02, 6.25000E+01  1.39000E+02, 6.75000E+01  1.36000E+02, 6.75000E+01  1.36000E+02, 7.25000E+01  1.36000E+02, 8.00000E+01  1.34500E+02, 8.00000E+01  1.34500E+02, 7.70000E+01  1.29500E+02, 7.70000E+01  1.29500E+02, 8.00000E+01  1.24500E+02, 8.00000E+01  1.24500E+02, 7.70000E+01  1.19500E+02, 7.70000E+01  1.19500E+02, 8.00000E+01  1.14500E+02, 8.00000E+01  1.14500E+02, 7.70000E+01  1.09500E+02, 7.70000E+01  1.09500E+02, 8.00000E+01  1.04500E+02, 8.00000E+01  1.04500E+02, 7.70000E+01  9.95000E+01, 7.70000E+01  9.95000E+01, 8.00000E+01  9.80000E+01, 8.00000E+01  9.80000E+01, 7.25000E+01  1.01000E+02, 7.25000E+01  1.01000E+02, 6.75000E+01  9.80000E+01, 6.75000E+01  9.80000E+01, 6.25000E+01  1.01000E+02, 6.25000E+01  1.01000E+02, 5.75000E+01  9.80000E+01, 5.75000E+01  9.80000E+01, 5.25000E+01  1.01000E+02, 5.25000E+01  1.01000E+02, 4.75000E+01  9.80000E+01, 4.75000E+01 "/>
	<polygon style="stroke:red;fill:white" points=" 1.40000E+02, 5.00000E+01  1.58000E+02, 5.00000E+01  1.58000E+02, 6.20000E+01  1.61000E+02, 6.20000E+01  1.61000E+02, 6.70000E+01  1.58000E+02, 6.70000E+01  1.58000E+02, 7.20000E+01  1.61000E+02, 7.20000E+01  1.61000E+02, 7.70000E+01  1.58000E+02, 7.70000E+01  1.58000E+02, 8.20000E+01  1.61000E+02, 8.20000E+01  1.61000E+02, 8.70000E+01  1.56500E+02, 8.70000E+01  1.56500E+02, 9.00000E+01  1.51500E+02, 9.00000E+01  1.51500E+02, 8.70000E+01  1.46500E+02, 8.70000E+01  1.46500E+02, 9.00000E+01  1.41500E+02, 9.00000E+01  1.41500E+02, 8.70000E+01  1.37000E+02, 8.70000E+01  1.34000E+02, 8.70000E+01  1.34000E+02, 8.20000E+01  1.37000E+02, 8.20000E+01  1.37000E+02, 7.70000E+01  1.34000E+02, 7.70000E+01  1.34000E+02, 7.20000E+01  1.37000E+02, 7.20000E+01  1.37000E+02, 6.70000E+01  1.34000E+02, 6.70000E+01  1.34000E+02, 6.20000E+01  1.37000E+02, 6.20000E+01 "/>
	<polygon style="stroke:red;fill:white" points=" 1.69000E+02, 5.00000E+01  1.87000E+02, 5.00000E+01  1.87000E+02, 6.20000E+01  1.90000E+02, 6.20000E+01  1.90000E+02, 6.70000E+01  1.87000E+02, 6.70000E+01  1.87000E+02, 7.20000E+01  1.90000E+02, 7.20000E+01  1.90000E+02, 7.70000E+01  1.87000E+02, 7.70000E+01  1.87000E+02, 8.20000E+01  1.90000E+02, 8.20000E+01  1.90000E+02, 8.70000E+01  1.85500E+02, 8.70000E+01  1.85500E+02, 9.00000E+01  1.80500E+02, 9.00000E+01  1.80500E+02, 8.70000E+01  1.75500E+02, 8.70000E+01  1.75500E+02, 9.00000E+01  1.70500E+02, 9.00000E+01  1.70500E+02, 8.70000E+01  1.66000E+02, 8.70000E+01  1.63000E+02, 8.70000E+01  1.63000E+02, 8.20000E+01  1.66000E+02, 8.20000E+01  1.66000E+02, 7.70000E+01  1.63000E+02, 7.70000E+01  1.63000E+02, 7.20000E+01  1.66000E+02, 7.20000E+01  1.66000E+02, 6.70000E+01  1.63000E+02, 6.70000E+01  1.63000E+02, 6.20000E+01  1.66000E+02, 6.20000E+01 "/>
	<polygon style="stroke:red;fill:white" points=" 0.00000E+00, 9.00000E+01  7.50000E+00, 9.00000E+01  7.50000E+00, 9.30000E+01  1.25000E+01, 9.30000E+01  1.25000E+01, 9.00000E+01  1.75000E+01, 9.00000E+01  1.75000E+01, 9.30000E+01  2.25000E+01, 9.30000E+01  2.25000E+01, 9.00000E+01  2.75000E+01, 9.00000E+01  2.75000E+01, 9.30000E+01  3.25000E+01, 9.30000E+01  3.25000E+01, 9.00000E+01  3.75000E+01, 9.00000E+01  3.75000E+01, 9.30000E+01  4.25000E+01, 9.30000E+01  4.25000E+01, 9.00000E+01  5.00000E+01, 9.00000E+01  5.00000E+01, 9.75000E+01  4.70000E+01, 9.75000E+01  4.70000E+01, 1.02500E+02  5.00000E+01, 1.02500E+02  5.00000E+01, 1.07500E+02  4.70000E+01, 1.07500E+02  4.70000E+01, 1.12500E+02  5.00000E+01, 1.12500E+02  5.00000E+01, 1.20000E+02  4.25000E+01, 1.20000E+02  4.25000E+01, 1.17000E+02  3.75000E+01, 1.17000E+02  3.75000E+01, 1.20000E+02  3.25000E+01, 1.20000E+02  3.25000E+01, 1.17000E+02  2.75000E+01, 1.17000E+02  2.75000E+01, 1.20000E+02  2.25000E+01, 1.20000E+02  2.25000E+01, 1.17000E+02  1.75000E+01, 1.17000E+02  1.75000E+01, 1.20000E+02  1.25000E+01, 1.20000E+02  1.25000E+01, 1.17000E+02  7.50000E+00, 1.17000E+02  7.50000E+00, 1.20000E+02  0.00000E+00, 1.20000E+02  0.00000E+00, 1.12500E+02  3.00000E+00, 1.12500E+02  3.00000E+00, 1.07500E+02  0.00000E+00, 1.07500E+02  0.00000E+00, 1.02500E+02  3.00000E+00, 1.02500E+02  3.00000E+00, 9.75000E+01  0.00000E+00, 9.75000E+01 "/>
	<polygon style="stroke:red;fill:white" points=" 5.80000E+01, 9.00000E+01  1.02000E+02, 9.00000E+01  1.02000E+02, 9.75000E+01  9.90000E+01, 9.75000E+01  9.90000E+01, 1.02500E+02  1.02000E+02, 1.02500E+02  1.02000E+02, 1.07500E+02  9.90000E+01, 1.07500E+02  9.90000E+01, 1.12500E+02  9.90000E+01, 1.20000E+02  9.45000E+01, 1.20000E+02  9.45000E+01, 1.17000E+02  8.95000E+01, 1.17000E+02  8.95000E+01, 1.20000E+02  8.45000E+01, 1.20000E+02  8.45000E+01, 1.17000E+02  7.95000E+01, 1.17000E+02  7.95000E+01, 1.20000E+02  7.45000E+01, 1.20000E+02  7.45000E+01, 1.17000E+02  6.95000E+01, 1.17000E+02  6.95000E+01, 1.20000E+02  6.45000E+01, 1.20000E+02  6.45000E+01, 1.17000E+02  5.95000E+01, 1.17000E+02  5.95000E+01, 1.20000E+02  5.50000E+01, 1.20000E+02  5.50000E+01, 1.12500E+02  5.80000E+01, 1.12500E+02  5.80000E+01, 1.07500E+02  5.50000E+01, 1.07500E+02  5.50000E+01, 1.02500E+02  5.80000E+01, 1.02500E+02  5.80000E+01, 9.75000E+01  5.50000E+01, 9.75000E+01 "/>
	<polygon style="stroke:red;fill:white" points=" 1.13000E+02, 9.00000E+01  1.57000E+02, 9.00000E+01  1.57000E+02, 9.75000E+01  1.54000E+02, 9.75000E+01  1.54000E+02, 1.02500E+02  1.57000E+02, 1.02500E+02  1.57000E+02, 1.07500E+02  1.54000E+02, 1.07500E+02  1.54000E+02, 1.12500E+02  1.54000E+02, 1.20000E+02  1.49500E+02, 1.20000E+02  1.49500E+02, 1.17000E+02  1.44500E+02, 1.17000E+02  1.44500E+02, 1.20000E+02  1.39500E+02, 1.20000E+02  1.39500E+02, 1.17000E+02  1.34500E+02, 1.17000E+02  1.34500E+02, 1.20000E+02  1.29500E+02, 1.20000E+02  1.29500E+02, 1.17000E+02  1.24500E+02, 1.17000E+02  1.24500E+02, 1.20000E+02  1.19500E+02, 1.20000E+02  1.19500E+02, 1.17000E+02  1.14500E+02, 1.17000E+02  1.14500E+02, 1.20000E+02  1.10000E+02, 1.20000E+02  1.10000E+02, 1.12500E+02  1.13000E+02, 1.12500E+02  1.13000E+02, 1.07500E+02  1.10000E+02, 1.07500E+02  1.10000E+02, 1.02500E+02  1.13000E+02, 1.02500E+02  1.13000E+02, 9.75000E+01  1.10000E+02, 9.75000E+01 "/>
	<polygon style="stroke:red;fill:white" points=" 1.58000E+02, 1.00000E+02  1.82000E+02, 1.00000E+02  1.82000E+02, 1.12000E+02  1.85000E+02, 1.12000E+02  1.85000E+02, 1.17000E+02  1.82000E+02, 1.17000E+02  1.82000E+02, 1.22000E+02  1.85000E+02, 1.22000E+02  1.85000E+02, 1.27000E+02  1.77500E+02, 1.27000E+02  1.77500E+02, 1.30000E+02  1.72500E+02, 1.30000E+02  1.72500E+02, 1.27000E+02  1.67500E+02, 1.27000E+02  1.67500E+02, 1.30000E+02  1.62500E+02, 1.30000E+02  1.62500E+02, 1.27000E+02  1.55000E+02, 1.27000E+02  1.52000E+02, 1.27000E+02  1.52000E+02, 1.22000E+02  1.55000E+02, 1.22000E+02  1.55000E+02, 1.17000E+02  1.52000E+02, 1.17000E+02  1.52000E+02, 1.12000E+02  1.55000E+02, 1.12000E+02 "/>
	<polygon style="stroke:red;fill:white" points=" 1.93000E+02, 1.00000E+02  2.17000E+02, 1.00000E+02  2.17000E+02, 1.12000E+02  2.20000E+02, 1.12000E+02  2.20000E+02, 1.17000E+02  2.17000E+02, 1.17000E+02  2.17000E+02, 1.22000E+02  2.20000E+02, 1.22000E+02  2.20000E+02, 1.27000E+02  2.12500E+02, 1.27000E+02  2.12500E+02, 1.30000E+02  2.07500E+02, 1.30000E+02  2.07500E+02, 1.27000E+02  2.02500E+02, 1.27000E+02  2.02500E+02, 1.30000E+02  1.97500E+02, 1.30000E+02  1.97500E+02, 1.27000E+02  1.90000E+02, 1.27000E+02  1.87000E+02, 1.27000E+02  1.87000E+02, 1.22000E+02  1.90000E+02, 1.22000E+02  1.90000E+02, 1.17000E+02  1.87000E+02, 1.17000E+02  1.87000E+02, 1.12000E+02  1.90000E+02, 1.12000E+02 "/>
</svg>
