<svg version="1.1"
     baseProfile="full"
     width="300" height="200"
     xmlns="http://www.w3.org/2000/svg">
	<polygon style="stroke:red;fill:white" points=" 0.00000E+00, 0.00000E+00  5.00000E+00, 0.00000E+00  5.00000E+00, 5.00000E+00  1.50000E+01, 5.00000E+00  1.50000E+01, 0.00000E+00  2.50000E+01, 0.00000E+00  2.50000E+01, 5.00000E+00  3.50000E+01, 5.00000E+00  3.50000E+01, 0.00000E+00  4.50000E+01, 0.00000E+00  4.50000E+01, 5.00000E+00  5.50000E+01, 5.00000E+00  5.50000E+01, 0.00000E+00  6.50000E+01, 0.00000E+00  6.50000E+01, 5.00000E+00  7.50000E+01, 5.00000E+00  7.50000E+01, 0.00000E+00  8.50000E+01, 0.00000E+00  8.50000E+01, 5.00000E+00  9.50000E+01, 5.00000E+00  9.50000E+01, 0.00000E+00  1.00000E+02, 0.00000E+00  1.00000E+02, 5.00000E+00  9.50000E+01, 5.00000E+00  9.50000E+01, 1.50000E+01  1.00000E+02, 1.50000E+01  1.00000E+02, 2.50000E+01  9.50000E+01, 2.50000E+01  9.50000E+01, 3.50000E+01  1.00000E+02, 3.50000E+01  1.00000E+02, 4.50000E+01  9.50000E+01, 4.50000E+01  9.50000E+01, 5.50000E+01  1.00000E+02, 5.50000E+01  1.00000E+02, 6.00000E+01  9.50000E+01, 6.00000E+01  9.50000E+01, 5.50000E+01  8.50000E+01, 5.50000E+01  8.50000E+01, 6.00000E+01  7.50000E+01, 6.00000E+01  7.50000E+01, 5.50000E+01  6.50000E+01, 5.50000E+01  6.50000E+01, 6.00000E+01  5.50000E+01, 6.00000E+01  5.50000E+01, 5.50000E+01  4.50000E+01, 5.50000E+01  4.50000E+01, 6.00000E+01  3.50000E+01, 6.00000E+01  3.50000E+01, 5.50000E+01  2.50000E+01, 5.50000E+01  2.50000E+01, 6.00000E+01  1.50000E+01, 6.00000E+01  1.50000E+01, 5.50000E+01  5.00000E+00, 5.50000E+01  5.00000E+00, 6.00000E+01  0.00000E+00, 6.00000E+01  0.00000E+00, 5.50000E+01  5.00000E+00, 5.50000E+01  5.00000E+00, 4.50000E+01  0.00000E+00, 4.50000E+01  0.00000E+00, 3.50000E+01  5.00000E+00, 3.50000E+01  5.00000E+00, 2.50000E+01  0.00000E+00, 2.50000E+01  0.00000E+00, 1.50000E+01  5.00000E+00, 1.50000E+01  5.00000E+00, 5.00000E+00  0.00000E+00, 5.00000E+00 "/>
	<polygon style="stroke:red;fill:white" points=" 1.10000E+02, 0.00000E+00  2.00000E+02, 0.00000E+00  2.00000E+02, 5.00000E+00  1.95000E+02, 5.00000E+00  1.95000E+02, 1.50000E+01  2.00000E+02, 1.50000E+01  2.00000E+02, 2.50000E+01  1.95000E+02, 2.50000E+01  1.95000E+02, 3.50000E+01  1.95000E+02, 4.00000E+01  1.95000E+02, 4.00000E+01  1.95000E+02, 3.50000E+01  1.85000E+02, 3.50000E+01  1.85000E+02, 4.00000E+01  1.75000E+02, 4.00000E+01  1.75000E+02, 3.50000E+01  1.65000E+02, 3.50000E+01  1.65000E+02, 4.00000E+01  1.55000E+02, 4.00000E+01  1.55000E+02, 3.50000E+01  1.45000E+02, 3.50000E+01  1.45000E+02, 4.00000E+01  1.35000E+02, 4.00000E+01  1.35000E+02, 3.50000E+01  1.25000E+02, 3.50000E+01  1.25000E+02, 4.00000E+01  1.15000E+02, 4.00000E+01  1.15000E+02, 3.50000E+01  1.05000E+02, 3.50000E+01  1.05000E+02, 4.00000E+01  1.05000E+02, 4.00000E+01  1.05000E+02, 3.50000E+01  1.10000E+02, 3.50000E+01  1.10000E+02, 2.50000E+01  1.05000E+02, 2.50000E+01  1.05000E+02, 1.50000E+01  1.10000E+02, 1.50000E+01  1.10000E+02, 5.00000E+00  1.05000E+02, 5.00000E+00 "/>
	<polygon style="stroke:red;fill:white" points=" 2.15000E+02, 0.00000E+00  3.05000E+02, 0.00000E+00  3.05000E+02, 5.00000E+00  3.00000E+02, 5.00000E+00  3.00000E+02, 1.50000E+01  3.05000E+02, 1.50000E+01  3.05000E+02, 2.50000E+01  3.00000E+02, 2.50000E+01  3.00000E+02, 3.50000E+01  3.00000E+02, 4.00000E+01  3.00000E+02, 4.00000E+01  3.00000E+02, 3.50000E+01  2.90000E+02, 3.50000E+01  2.90000E+02, 4.00000E+01  2.80000E+02, 4.00000E+01  2.80000E+02, 3.50000E+01  2.70000E+02, 3.50000E+01  2.70000E+02, 4.00000E+01  2.60000E+02, 4.00000E+01  2.60000E+02, 3.50000E+01  2.50000E+02, 3.50000E+01  2.50000E+02, 4.00000E+01  2.40000E+02, 4.00000E+01  2.40000E+02, 3.50000E+01  2.30000E+02, 3.50000E+01  2.30000E+02, 4.00000E+01  2.20000E+02, 4.00000E+01  2.20000E+02, 3.50000E+01  2.10000E+02, 3.50000E+01  2.10000E+02, 4.00000E+01  2.10000E+02, 4.00000E+01  2.10000E+02, 3.50000E+01  2.15000E+02, 3.50000E+01  2.15000E+02, 2.50000E+01  2.10000E+02, 2.50000E+01  2.10000E+02, 1.50000E+01  2.15000E+02, 1.50000E+01  2.15000E+02, 5.00000E+00  2.10000E+02, 5.00000E+00 "/>
	<polygon style="stroke:red;fill:white" points=" 2.90000E+02, 1.00000E+01  3.40000E+02, 1.00000E+01  3.40000E+02, 1.50000E+01  3.45000E+02, 1.50000E+01  3.45000E+02, 2.50000E+01  3.40000E+02, 2.50000E+01  3.40000E+02, 3.50000E+01  3.45000E+02, 3.50000E+01  3.45000E+02, 4.50000E+01  3.40000E+02, 4.50000E+01  3.40000E+02, 5.00000E+01  3.30000E+02, 5.00000E+01  3.30000E+02, 4.50000E+01  3.20000E+02, 4.50000E+01  3.20000E+02, 5.00000E+01  3.10000E+02, 5.00000E+01  3.10000E+02, 4.50000E+01  3.00000E+02, 4.50000E+01  3.00000E+02, 5.00000E+01  2.90000E+02, 5.00000E+01  2.90000E+02, 4.50000E+01  2.85000E+02, 4.50000E+01  2.80000E+02, 4.50000E+01  2.80000E+02, 3.50000E+01  2.85000E+02, 3.50000E+01  2.85000E+02, 2.50000E+01  2.80000E+02, 2.50000E+01  2.80000E+02, 1.50000E+01  2.85000E+02, 1.50000E+01 "/>
	<polygon style="stroke:red;fill:white" points=" 3.55000E+02, 1.00000E+01  4.05000E+02, 1.00000E+01  4.05000E+02, 1.50000E+01  4.10000E+02, 1.50000E+01  4.10000E+02, 2.50000E+01  4.05000E+02, 2.50000E+01  4.05000E+02, 3.50000E+01  4.10000E+02, 3.50000E+01  4.10000E+02, 4.50000E+01  4.05000E+02, 4.50000E+01  4.05000E+02, 5.00000E+01  3.95000E+02, 5.00000E+01  3.95000E+02, 4.50000E+01  3.85000E+02, 4.50000E+01  3.85000E+02, 5.00000E+01  3.75000E+02, 5.00000E+01  3.75000E+02, 4.50000E+01  3.65000E+02, 4.50000E+01  3.65000E+02, 5.00000E+01  3.55000E+02, 5.00000E+01  3.55000E+02, 4.50000E+01  3.50000E+02, 4.50000E+01  3.45000E+02, 4.50000E+01  3.45000E+02, 3.50000E+01  3.50000E+02, 3.50000E+01  3.50000E+02, 2.50000E+01  3.45000E+02, 2.50000E+01  3.45000E+02, 1.50000E+01  3.50000E+02, 1.50000E+01 "/>
	<polygon style="stroke:red;fill:white" points=" 0.00000E+00, 5.00000E+01  1.00000E+01, 5.00000E+01  1.00000E+01, 5.50000E+01  2.00000E+01, 5.50000E+01  2.00000E+01, 5.00000E+01  3.00000E+01, 5.00000E+01  3.00000E+01, 5.50000E+01  4.00000E+01, 5.50000E+01  4.00000E+01, 5.00000E+01  5.00000E+01, 5.00000E+01  5.00000E+01, 5.50000E+01  6.00000E+01, 5.50000E+01  6.00000E+01, 5.00000E+01  7.00000E+01, 5.00000E+01  7.00000E+01, 5.50000E+01  8.00000E+01, 5.50000E+01  8.00000E+01, 5.00000E+01  9.00000E+01, 5.00000E+01  9.00000E+01, 6.00000E+01  8.50000E+01, 6.00000E+01  8.50000E+01, 7.00000E+01  9.00000E+01, 7.00000E+01  9.00000E+01, 8.00000E+01  8.50000E+01, 8.00000E+01  8.50000E+01, 9.00000E+01  9.00000E+01, 9.00000E+01  9.00000E+01, 1.00000E+02  8.00000E+01, 1.00000E+02  8.00000E+01, 9.50000E+01  7.00000E+01, 9.50000E+01  7.00000E+01, 1.00000E+02  6.00000E+01, 1.00000E+02  6.00000E+01, 9.50000E+01  5.00000E+01, 9.50000E+01  5.00000E+01, 1.00000E+02  4.00000E+01, 1.00000E+02  4.00000E+01, 9.50000E+01  3.00000E+01, 9.50000E+01  3.00000E+01, 1.00000E+02  2.00000E+01, 1.00000E+02  2.00000E+01, 9.50000E+01  1.00000E+01, 9.50000E+01  1.00000E+01, 1.00000E+02  0.00000E+00, 1.00000E+02  0.00000E+00, 9.00000E+01  5.00000E+00, 9.00000E+01  5.00000E+00, 8.00000E+01  0.00000E+00, 8.00000E+01  0.00000E+00, 7.00000E+01  5.00000E+00, 7.00000E+01  5.00000E+00, 6.00000E+01  0.00000E+00, 6.00000E+01 "/>
	<polygon style="stroke:red;fill:white" points=" 1.00000E+02, 5.00000E+01  1.80000E+02, 5.00000E+01  1.80000E+02, 6.00000E+01  1.75000E+02, 6.00000E+01  1.75000E+02, 7.00000E+01  1.75000E+02, 8.00000E+01  1.70000E+02, 8.00000E+01  1.70000E+02, 7.50000E+01  1.60000E+02, 7.50000E+01  1.60000E+02, 8.00000E+01  1.50000E+02, 8.00000E+01  1.50000E+02, 7.50000E+01  1.40000E+02, 7.50000E+01  1.40000E+02, 8.00000E+01  1.30000E+02, 8.00000E+01  1.30000E+02, 7.50000E+01  1.20000E+02, 7.50000E+01  1.20000E+02, 8.00000E+01  1.10000E+02, 8.00000E+01  1.10000E+02, 7.50000E+01  1.00000E+02, 7.50000E+01  1.00000E+02, 8.00000E+01  9.50000E+01, 8.00000E+01  9.50000E+01, 7.00000E+01  1.00000E+02, 7.00000E+01  1.00000E+02, 6.00000E+01  9.50000E+01, 6.00000E+01 "/>
	<polygon style="stroke:red;fill:white" points=" 1.95000E+02, 5.00000E+01  2.75000E+02, 5.00000E+01  2.75000E+02, 6.00000E+01  2.70000E+02, 6.00000E+01  2.70000E+02, 7.00000E+01  2.70000E+02, 8.00000E+01  2.65000E+02, 8.00000E+01  2.65000E+02, 7.50000E+01  2.55000E+02, 7.50000E+01  2.55000E+02, 8.00000E+01  2.45000E+02, 8.00000E+01  2.45000E+02, 7.50000E+01  2.35000E+02, 7.50000E+01  2.35000E+02, 8.00000E+01  2.25000E+02, 8.00000E+01  2.25000E+02, 7.50000E+01  2.15000E+02, 7.50000E+01  2.15000E+02, 8.00000E+01  2.05000E+02, 8.00000E+01  2.05000E+02, 7.50000E+01  1.95000E+02, 7.50000E+01  1.95000E+02, 8.00000E+01  1.90000E+02, 8.00000E+01  1.90000E+02, 7.00000E+01  1.95000E+02, 7.00000E+01  1.95000E+02, 6.00000E+01  1.90000E+02, 6.00000E+01 "/>
	<polygon style="stroke:red;fill:white" points=" 2.60000E+02, 6.00000E+01  3.00000E+02, 6.00000E+01  3.00000E+02, 7.50000E+01  3.05000E+02, 7.50000E+01  3.05000E+02, 8.50000E+01  2.95000E+02, 8.50000E+01  2.95000E+02, 9.00000E+01  2.85000E+02, 9.00000E+01  2.85000E+02, 8.50000E+01  2.75000E+02, 8.50000E+01  2.75000E+02, 9.00000E+01  2.65000E+02, 9.00000E+01  2.65000E+02, 8.50000E+01  2.55000E+02, 8.50000E+01  2.50000E+02, 8.50000E+01  2.50000E+02, 7.50000E+01  2.55000E+02, 7.50000E+01 "/>
	<polygon style="stroke:red;fill:white" points=" 3.15000E+02, 6.00000E+01  3.55000E+02, 6.00000E+01  3.55000E+02, 7.50000E+01  3.60000E+02, 7.50000E+01  3.60000E+02, 8.50000E+01  3.50000E+02, 8.50000E+01  3.50000E+02, 9.00000E+01  3.40000E+02, 9.00000E+01  3.40000E+02, 8.50000E+01  3.30000E+02, 8.50000E+01  3.30000E+02, 9.00000E+01  3.20000E+02, 9.00000E+01  3.20000E+02, 8.50000E+01  3.10000E+02, 8.50000E+01  3.05000E+02, 8.50000E+01  3.05000E+02, 7.50000E+01  3.10000E+02, 7.50000E+01 "/>
	<polygon style="stroke:red;fill:white" points=" 0.00000E+00, 9.00000E+01  5.00000E+00, 9.00000E+01  5.00000E+00, 9.50000E+01  1.50000E+01, 9.50000E+01  1.50000E+01, 9.00000E+01  2.50000E+01, 9.00000E+01  2.50000E+01, 9.50000E+01  3.50000E+01, 9.50000E+01  3.50000E+01, 9.00000E+01  4.50000E+01, 9.00000E+01  4.50000E+01, 9.50000E+01  5.50000E+01, 9.50000E+01  5.50000E+01, 9.00000E+01  6.50000E+01, 9.00000E+01  6.50000E+01, 9.50000E+01  7.50000E+01, 9.50000E+01  7.50000E+01, 9.00000E+01  8.50000E+01, 9.00000E+01  8.50000E+01, 9.50000E+01  9.50000E+01, 9.50000E+01  9.50000E+01, 9.00000E+01  1.00000E+02, 9.00000E+01  1.00000E+02, 9.50000E+01  9.50000E+01, 9.50000E+01  9.50000E+01, 1.05000E+02  1.00000E+02, 1.05000E+02  1.00000E+02, 1.15000E+02  9.50000E+01, 1.15000E+02  9.50000E+01, 1.25000E+02  1.00000E+02, 1.25000E+02  1.00000E+02, 1.35000E+02  9.50000E+01, 1.35000E+02  9.50000E+01, 1.45000E+02  1.00000E+02, 1.45000E+02  1.00000E+02, 1.50000E+02  9.50000E+01, 1.50000E+02  9.50000E+01, 1.45000E+02  8.50000E+01, 1.45000E+02  8.50000E+01, 1.50000E+02  7.50000E+01, 1.50000E+02  7.50000E+01, 1.45000E+02  6.50000E+01, 1.45000E+02  6.50000E+01, 1.50000E+02  5.50000E+01, 1.50000E+02  5.50000E+01, 1.45000E+02  4.50000E+01, 1.45000E+02  4.50000E+01, 1.50000E+02  3.50000E+01, 1.50000E+02  3.50000E+01, 1.45000E+02  2.50000E+01, 1.45000E+02  2.50000E+01, 1.50000E+02  1.50000E+01, 1.50000E+02  1.50000E+01, 1.45000E+02  5.00000E+00, 1.45000E+02  5.00000E+00, 1.50000E+02  0.00000E+00, 1.50000E+02  0.00000E+00, 1.45000E+02  5.00000E+00, 1.45000E+02  5.00000E+00, 1.35000E+02  0.00000E+00, 1.35000E+02  0.00000E+00, 1.25000E+02  5.00000E+00, 1.25000E+02  5.00000E+00, 1.15000E+02  0.00000E+00, 1.15000E+02  0.00000E+00, 1.05000E+02  5.00000E+00, 1.05000E+02  5.00000E+00, 9.50000E+01  0.00000E+00, 9.50000E+01 "/>
	<polygon style="stroke:red;fill:white" points=" 1.10000E+02, 9.00000E+01  2.00000E+02, 9.00000E+01  2.00000E+02, 9.50000E+01  1.95000E+02, 9.50000E+01  1.95000E+02, 1.05000E+02  2.00000E+02, 1.05000E+02  2.00000E+02, 1.15000E+02  1.95000E+02, 1.15000E+02  1.95000E+02, 1.25000E+02  1.95000E+02, 1.30000E+02  1.95000E+02, 1.30000E+02  1.95000E+02, 1.25000E+02  1.85000E+02, 1.25000E+02  1.85000E+02, 1.30000E+02  1.75000E+02, 1.30000E+02  1.75000E+02, 1.25000E+02  1.65000E+02, 1.25000E+02  1.65000E+02, 1.30000E+02  1.55000E+02, 1.30000E+02  1.55000E+02, 1.25000E+02  1.45000E+02, 1.25000E+02  1.45000E+02, 1.30000E+02  1.35000E+02, 1.30000E+02  1.35000E+02, 1.25000E+02  1.25000E+02, 1.25000E+02  1.25000E+02, 1.30000E+02  1.15000E+02, 1.30000E+02  1.15000E+02, 1.25000E+02  1.05000E+02, 1.25000E+02  1.05000E+02, 1.30000E+02  1.05000E+02, 1.30000E+02  1.05000E+02, 1.25000E+02  1.10000E+02, 1.25000E+02  1.10000E+02, 1.15000E+02  1.05000E+02, 1.15000E+02  1.05000E+02, 1.05000E+02  1.10000E+02, 1.05000E+02  1.10000E+02, 9.50000E+01  1.05000E+02, 9.50000E+01 "/>
	<polygon style="stroke:red;fill:white" points=" 2.15000E+02, 9.00000E+01  3.05000E+02, 9.00000E+01  3.05000E+02, 9.50000E+01  3.00000E+02, 9.50000E+01  3.00000E+02, 1.05000E+02  3.05000E+02, 1.05000E+02  3.05000E+02, 1.15000E+02  3.00000E+02, 1.15000E+02  3.00000E+02, 1.25000E+02  3.00000E+02, 1.30000E+02  3.00000E+02, 1.30000E+02  3.00000E+02, 1.25000E+02  2.90000E+02, 1.25000E+02  2.90000E+02, 1.30000E+02  2.80000E+02, 1.30000E+02  2.80000E+02, 1.25000E+02  2.70000E+02, 1.25000E+02  2.70000E+02, 1.30000E+02  2.60000E+02, 1.30000E+02  2.60000E+02, 1.25000E+02  2.50000E+02, 1.25000E+02  2.50000E+02, 1.30000E+02  2.40000E+02, 1.30000E+02  2.40000E+02, 1.25000E+02  2.30000E+02, 1.25000E+02  2.30000E+02, 1.30000E+02  2.20000E+02, 1.30000E+02  2.20000E+02, 1.25000E+02  2.10000E+02, 1.25000E+02  2.10000E+02, 1.30000E+02  2.10000E+02, 1.30000E+02  2.10000E+02, 1.25000E+02  2.15000E+02, 1.25000E+02  2.15000E+02, 1.15000E+02  2.10000E+02, 1.15000E+02  2.10000E+02, 1.05000E+02  2.15000E+02, 1.05000E+02  2.15000E+02, 9.50000E+01  2.10000E+02, 9.50000E+01 "/>
	<polygon style="stroke:red;fill:white" points=" 2.90000E+02, 1.00000E+02  3.40000E+02, 1.00000E+02  3.40000E+02, 1.05000E+02  3.45000E+02, 1.05000E+02  3.45000E+02, 1.15000E+02  3.40000E+02, 1.15000E+02  3.40000E+02, 1.25000E+02  3.45000E+02, 1.25000E+02  3.45000E+02, 1.35000E+02  3.40000E+02, 1.35000E+02  3.40000E+02, 1.40000E+02  3.30000E+02, 1.40000E+02  3.30000E+02, 1.35000E+02  3.20000E+02, 1.35000E+02  3.20000E+02, 1.40000E+02  3.10000E+02, 1.40000E+02  3.10000E+02, 1.35000E+02  3.00000E+02, 1.35000E+02  3.00000E+02, 1.40000E+02  2.90000E+02, 1.40000E+02  2.90000E+02, 1.35000E+02  2.85000E+02, 1.35000E+02  2.80000E+02, 1.35000E+02  2.80000E+02, 1.25000E+02  2.85000E+02, 1.25000E+02  2.85000E+02, 1.15000E+02  2.80000E+02, 1.15000E+02  2.80000E+02, 1.05000E+02  2.85000E+02, 1.05000E+02 "/>
	<polygon style="stroke:red;fill:white" points=" 3.55000E+02, 1.00000E+02  4.05000E+02, 1.00000E+02  4.05000E+02, 1.05000E+02  4.10000E+02, 1.05000E+02  4.10000E+02, 1.15000E+02  4.05000E+02, 1.15000E+02  4.05000E+02, 1.25000E+02  4.10000E+02, 1.25000E+02  4.10000E+02, 1.35000E+02  4.05000E+02, 1.35000E+02  4.05000E+02, 1.40000E+02  3.95000E+02, 1.40000E+02  3.95000E+02, 1.35000E+02  3.85000E+02, 1.35000E+02  3.85000E+02, 1.40000E+02  3.75000E+02, 1.40000E+02  3.75000E+02, 1.35000E+02  3.65000E+02, 1.35000E+02  3.65000E+02, 1.40000E+02  3.55000E+02, 1.40000E+02  3.55000E+02, 1.35000E+02  3.50000E+02, 1.35000E+02  3.45000E+02, 1.35000E+02  3.45000E+02, 1.25000E+02  3.50000E+02, 1.25000E+02  3.50000E+02, 1.15000E+02  3.45000E+02, 1.15000E+02  3.45000E+02, 1.05000E+02  3.50000E+02, 1.05000E+02 "/>
</svg>
