<svg version="1.1"
     baseProfile="full"
     xmlns="http://www.w3.org/2000/svg"
     xmlns:xlink="http://www.w3.org/1999/xlink">
	<polygon style="stroke-width:0.1;stroke:red;fill:white" points=" 0.00000E+00, 0.00000E+00  7.50000E+00, 0.00000E+00  7.50000E+00, 3.00000E+00  1.25000E+01, 3.00000E+00  1.25000E+01, 0.00000E+00  1.75000E+01, 0.00000E+00  1.75000E+01, 3.00000E+00  2.25000E+01, 3.00000E+00  2.25000E+01, 0.00000E+00  3.00000E+01, 0.00000E+00  3.00000E+01, 7.50000E+00  2.70000E+01, 7.50000E+00  2.70000E+01, 1.25000E+01  3.00000E+01, 1.25000E+01  3.00000E+01, 1.75000E+01  2.70000E+01, 1.75000E+01  2.70000E+01, 2.25000E+01  3.00000E+01, 2.25000E+01  3.00000E+01, 3.00000E+01  2.25000E+01, 3.00000E+01  2.25000E+01, 2.70000E+01  1.75000E+01, 2.70000E+01  1.75000E+01, 3.00000E+01  1.25000E+01, 3.00000E+01  1.25000E+01, 2.70000E+01  7.50000E+00, 2.70000E+01  7.50000E+00, 3.00000E+01  0.00000E+00, 3.00000E+01  0.00000E+00, 2.25000E+01  3.00000E+00, 2.25000E+01  3.00000E+00, 1.75000E+01  0.00000E+00, 1.75000E+01  0.00000E+00, 1.25000E+01  3.00000E+00, 1.25000E+01  3.00000E+00, 7.50000E+00  0.00000E+00, 7.50000E+00 "/>
	<polygon style="stroke-width:0.1;stroke:red;fill:white" points=" 3.50000E+01, 3.00000E+00  4.25000E+01, 3.00000E+00  4.25000E+01, 0.00000E+00  4.75000E+01, 0.00000E+00  4.75000E+01, 3.00000E+00  5.25000E+01, 3.00000E+00  5.25000E+01, 0.00000E+00  5.75000E+01, 0.00000E+00  5.75000E+01, 3.00000E+00  6.50000E+01, 3.00000E+00  6.50000E+01, 1.05000E+01  6.20000E+01, 1.05000E+01  6.20000E+01, 1.55000E+01  6.50000E+01, 1.55000E+01  6.50000E+01, 2.05000E+01  6.20000E+01, 2.05000E+01  6.20000E+01, 2.55000E+01  6.50000E+01, 2.55000E+01  6.50000E+01, 3.30000E+01  3.50000E+01, 3.30000E+01  3.50000E+01, 2.55000E+01  3.80000E+01, 2.55000E+01  3.80000E+01, 2.05000E+01  3.50000E+01, 2.05000E+01  3.50000E+01, 1.55000E+01  3.80000E+01, 1.55000E+01  3.80000E+01, 1.05000E+01  3.50000E+01, 1.05000E+01 "/>
	<polygon style="stroke-width:0.1;stroke:red;fill:white" points=" 7.00000E+01, 3.00000E+00  7.75000E+01, 3.00000E+00  7.75000E+01, 0.00000E+00  8.25000E+01, 0.00000E+00  8.25000E+01, 3.00000E+00  8.75000E+01, 3.00000E+00  8.75000E+01, 0.00000E+00  9.25000E+01, 0.00000E+00  9.25000E+01, 3.00000E+00  1.00000E+02, 3.00000E+00  1.00000E+02, 1.05000E+01  9.70000E+01, 1.05000E+01  9.70000E+01, 1.55000E+01  1.00000E+02, 1.55000E+01  1.00000E+02, 2.05000E+01  9.70000E+01, 2.05000E+01  9.70000E+01, 2.55000E+01  1.00000E+02, 2.55000E+01  1.00000E+02, 3.30000E+01  7.00000E+01, 3.30000E+01  7.00000E+01, 2.55000E+01  7.30000E+01, 2.55000E+01  7.30000E+01, 2.05000E+01  7.00000E+01, 2.05000E+01  7.00000E+01, 1.55000E+01  7.30000E+01, 1.55000E+01  7.30000E+01, 1.05000E+01  7.00000E+01, 1.05000E+01 "/>
	<polygon style="stroke-width:0.1;stroke:red;fill:white" points=" 1.08000E+02, 3.00000E+00  1.15500E+02, 3.00000E+00  1.15500E+02, 0.00000E+00  1.20500E+02, 0.00000E+00  1.20500E+02, 3.00000E+00  1.25500E+02, 3.00000E+00  1.25500E+02, 0.00000E+00  1.30500E+02, 0.00000E+00  1.30500E+02, 3.00000E+00  1.38000E+02, 3.00000E+00  1.38000E+02, 1.05000E+01  1.41000E+02, 1.05000E+01  1.41000E+02, 1.55000E+01  1.38000E+02, 1.55000E+01  1.38000E+02, 2.05000E+01  1.41000E+02, 2.05000E+01  1.41000E+02, 2.55000E+01  1.38000E+02, 2.55000E+01  1.38000E+02, 3.30000E+01  1.08000E+02, 3.30000E+01  1.08000E+02, 2.55000E+01  1.05000E+02, 2.55000E+01  1.05000E+02, 2.05000E+01  1.08000E+02, 2.05000E+01  1.08000E+02, 1.55000E+01  1.05000E+02, 1.55000E+01  1.05000E+02, 1.05000E+01  1.08000E+02, 1.05000E+01 "/>
	<polygon style="stroke-width:0.1;stroke:red;fill:white" points=" 1.48000E+02, 3.00000E+00  1.55500E+02, 3.00000E+00  1.55500E+02, 0.00000E+00  1.60500E+02, 0.00000E+00  1.60500E+02, 3.00000E+00  1.65500E+02, 3.00000E+00  1.65500E+02, 0.00000E+00  1.70500E+02, 0.00000E+00  1.70500E+02, 3.00000E+00  1.78000E+02, 3.00000E+00  1.78000E+02, 1.05000E+01  1.81000E+02, 1.05000E+01  1.81000E+02, 1.55000E+01  1.78000E+02, 1.55000E+01  1.78000E+02, 2.05000E+01  1.81000E+02, 2.05000E+01  1.81000E+02, 2.55000E+01  1.78000E+02, 2.55000E+01  1.78000E+02, 3.30000E+01  1.48000E+02, 3.30000E+01  1.48000E+02, 2.55000E+01  1.45000E+02, 2.55000E+01  1.45000E+02, 2.05000E+01  1.48000E+02, 2.05000E+01  1.48000E+02, 1.55000E+01  1.45000E+02, 1.55000E+01  1.45000E+02, 1.05000E+01  1.48000E+02, 1.05000E+01 "/>
	<polygon style="stroke-width:0.1;stroke:red;fill:white" points=" 0.00000E+00, 4.00000E+01  4.50000E+00, 4.00000E+01  4.50000E+00, 4.30000E+01  9.50000E+00, 4.30000E+01  9.50000E+00, 4.00000E+01  1.45000E+01, 4.00000E+01  1.45000E+01, 4.30000E+01  1.95000E+01, 4.30000E+01  1.95000E+01, 4.00000E+01  2.40000E+01, 4.00000E+01  2.40000E+01, 4.45000E+01  2.10000E+01, 4.45000E+01  2.10000E+01, 4.95000E+01  2.40000E+01, 4.95000E+01  2.40000E+01, 5.45000E+01  2.10000E+01, 5.45000E+01  2.10000E+01, 5.95000E+01  2.40000E+01, 5.95000E+01  2.40000E+01, 6.40000E+01  1.95000E+01, 6.40000E+01  1.95000E+01, 6.10000E+01  1.45000E+01, 6.10000E+01  1.45000E+01, 6.40000E+01  9.50000E+00, 6.40000E+01  9.50000E+00, 6.10000E+01  4.50000E+00, 6.10000E+01  4.50000E+00, 6.40000E+01  0.00000E+00, 6.40000E+01  0.00000E+00, 5.95000E+01  3.00000E+00, 5.95000E+01  3.00000E+00, 5.45000E+01  0.00000E+00, 5.45000E+01  0.00000E+00, 4.95000E+01  3.00000E+00, 4.95000E+01  3.00000E+00, 4.45000E+01  0.00000E+00, 4.45000E+01 "/>
	<polygon style="stroke-width:0.1;stroke:red;fill:white" points=" 2.90000E+01, 4.30000E+01  3.35000E+01, 4.30000E+01  3.35000E+01, 4.00000E+01  3.85000E+01, 4.00000E+01  3.85000E+01, 4.30000E+01  4.35000E+01, 4.30000E+01  4.35000E+01, 4.00000E+01  4.85000E+01, 4.00000E+01  4.85000E+01, 4.30000E+01  5.30000E+01, 4.30000E+01  5.30000E+01, 5.05000E+01  5.00000E+01, 5.05000E+01  5.00000E+01, 5.55000E+01  5.30000E+01, 5.55000E+01  5.30000E+01, 6.05000E+01  5.00000E+01, 6.05000E+01  5.00000E+01, 6.55000E+01  5.30000E+01, 6.55000E+01  5.30000E+01, 7.05000E+01  5.00000E+01, 7.05000E+01  5.00000E+01, 7.55000E+01  5.30000E+01, 7.55000E+01  5.30000E+01, 8.30000E+01  2.90000E+01, 8.30000E+01  2.90000E+01, 7.55000E+01  3.20000E+01, 7.55000E+01  3.20000E+01, 7.05000E+01  2.90000E+01, 7.05000E+01  2.90000E+01, 6.55000E+01  3.20000E+01, 6.55000E+01  3.20000E+01, 6.05000E+01  2.90000E+01, 6.05000E+01  2.90000E+01, 5.55000E+01  3.20000E+01, 5.55000E+01  3.20000E+01, 5.05000E+01  2.90000E+01, 5.05000E+01 "/>
	<polygon style="stroke-width:0.1;stroke:red;fill:white" points=" 5.80000E+01, 4.30000E+01  6.25000E+01, 4.30000E+01  6.25000E+01, 4.00000E+01  6.75000E+01, 4.00000E+01  6.75000E+01, 4.30000E+01  7.25000E+01, 4.30000E+01  7.25000E+01, 4.00000E+01  7.75000E+01, 4.00000E+01  7.75000E+01, 4.30000E+01  8.20000E+01, 4.30000E+01  8.20000E+01, 5.05000E+01  7.90000E+01, 5.05000E+01  7.90000E+01, 5.55000E+01  8.20000E+01, 5.55000E+01  8.20000E+01, 6.05000E+01  7.90000E+01, 6.05000E+01  7.90000E+01, 6.55000E+01  8.20000E+01, 6.55000E+01  8.20000E+01, 7.05000E+01  7.90000E+01, 7.05000E+01  7.90000E+01, 7.55000E+01  8.20000E+01, 7.55000E+01  8.20000E+01, 8.30000E+01  5.80000E+01, 8.30000E+01  5.80000E+01, 7.55000E+01  6.10000E+01, 7.55000E+01  6.10000E+01, 7.05000E+01  5.80000E+01, 7.05000E+01  5.80000E+01, 6.55000E+01  6.10000E+01, 6.55000E+01  6.10000E+01, 6.05000E+01  5.80000E+01, 6.05000E+01  5.80000E+01, 5.55000E+01  6.10000E+01, 5.55000E+01  6.10000E+01, 5.05000E+01  5.80000E+01, 5.05000E+01 "/>
	<polygon style="stroke-width:0.1;stroke:red;fill:white" points=" 9.00000E+01, 4.30000E+01  9.45000E+01, 4.30000E+01  9.45000E+01, 4.00000E+01  9.95000E+01, 4.00000E+01  9.95000E+01, 4.30000E+01  1.04500E+02, 4.30000E+01  1.04500E+02, 4.00000E+01  1.09500E+02, 4.00000E+01  1.09500E+02, 4.30000E+01  1.14000E+02, 4.30000E+01  1.14000E+02, 5.05000E+01  1.17000E+02, 5.05000E+01  1.17000E+02, 5.55000E+01  1.14000E+02, 5.55000E+01  1.14000E+02, 6.05000E+01  1.17000E+02, 6.05000E+01  1.17000E+02, 6.55000E+01  1.14000E+02, 6.55000E+01  1.14000E+02, 7.05000E+01  1.17000E+02, 7.05000E+01  1.17000E+02, 7.55000E+01  1.14000E+02, 7.55000E+01  1.14000E+02, 8.30000E+01  9.00000E+01, 8.30000E+01  9.00000E+01, 7.55000E+01  8.70000E+01, 7.55000E+01  8.70000E+01, 7.05000E+01  9.00000E+01, 7.05000E+01  9.00000E+01, 6.55000E+01  8.70000E+01, 6.55000E+01  8.70000E+01, 6.05000E+01  9.00000E+01, 6.05000E+01  9.00000E+01, 5.55000E+01  8.70000E+01, 5.55000E+01  8.70000E+01, 5.05000E+01  9.00000E+01, 5.05000E+01 "/>
	<polygon style="stroke-width:0.1;stroke:red;fill:white" points=" 1.24000E+02, 4.30000E+01  1.28500E+02, 4.30000E+01  1.28500E+02, 4.00000E+01  1.33500E+02, 4.00000E+01  1.33500E+02, 4.30000E+01  1.38500E+02, 4.30000E+01  1.38500E+02, 4.00000E+01  1.43500E+02, 4.00000E+01  1.43500E+02, 4.30000E+01  1.48000E+02, 4.30000E+01  1.48000E+02, 5.05000E+01  1.51000E+02, 5.05000E+01  1.51000E+02, 5.55000E+01  1.48000E+02, 5.55000E+01  1.48000E+02, 6.05000E+01  1.51000E+02, 6.05000E+01  1.51000E+02, 6.55000E+01  1.48000E+02, 6.55000E+01  1.48000E+02, 7.05000E+01  1.51000E+02, 7.05000E+01  1.51000E+02, 7.55000E+01  1.48000E+02, 7.55000E+01  1.48000E+02, 8.30000E+01  1.24000E+02, 8.30000E+01  1.24000E+02, 7.55000E+01  1.21000E+02, 7.55000E+01  1.21000E+02, 7.05000E+01  1.24000E+02, 7.05000E+01  1.24000E+02, 6.55000E+01  1.21000E+02, 6.55000E+01  1.21000E+02, 6.05000E+01  1.24000E+02, 6.05000E+01  1.24000E+02, 5.55000E+01  1.21000E+02, 5.55000E+01  1.21000E+02, 5.05000E+01  1.24000E+02, 5.05000E+01 "/>
	<polygon style="stroke-width:0.1;stroke:red;fill:white" points=" 0.00000E+00, 9.00000E+01  7.50000E+00, 9.00000E+01  7.50000E+00, 9.30000E+01  1.25000E+01, 9.30000E+01  1.25000E+01, 9.00000E+01  1.75000E+01, 9.00000E+01  1.75000E+01, 9.30000E+01  2.25000E+01, 9.30000E+01  2.25000E+01, 9.00000E+01  3.00000E+01, 9.00000E+01  3.00000E+01, 9.75000E+01  2.70000E+01, 9.75000E+01  2.70000E+01, 1.02500E+02  3.00000E+01, 1.02500E+02  3.00000E+01, 1.07500E+02  2.70000E+01, 1.07500E+02  2.70000E+01, 1.12500E+02  3.00000E+01, 1.12500E+02  3.00000E+01, 1.20000E+02  2.25000E+01, 1.20000E+02  2.25000E+01, 1.17000E+02  1.75000E+01, 1.17000E+02  1.75000E+01, 1.20000E+02  1.25000E+01, 1.20000E+02  1.25000E+01, 1.17000E+02  7.50000E+00, 1.17000E+02  7.50000E+00, 1.20000E+02  0.00000E+00, 1.20000E+02  0.00000E+00, 1.12500E+02  3.00000E+00, 1.12500E+02  3.00000E+00, 1.07500E+02  0.00000E+00, 1.07500E+02  0.00000E+00, 1.02500E+02  3.00000E+00, 1.02500E+02  3.00000E+00, 9.75000E+01  0.00000E+00, 9.75000E+01 "/>
	<polygon style="stroke-width:0.1;stroke:red;fill:white" points=" 3.50000E+01, 9.30000E+01  4.25000E+01, 9.30000E+01  4.25000E+01, 9.00000E+01  4.75000E+01, 9.00000E+01  4.75000E+01, 9.30000E+01  5.25000E+01, 9.30000E+01  5.25000E+01, 9.00000E+01  5.75000E+01, 9.00000E+01  5.75000E+01, 9.30000E+01  6.50000E+01, 9.30000E+01  6.50000E+01, 1.00500E+02  6.20000E+01, 1.00500E+02  6.20000E+01, 1.05500E+02  6.50000E+01, 1.05500E+02  6.50000E+01, 1.10500E+02  6.20000E+01, 1.10500E+02  6.20000E+01, 1.15500E+02  6.50000E+01, 1.15500E+02  6.50000E+01, 1.23000E+02  3.50000E+01, 1.23000E+02  3.50000E+01, 1.15500E+02  3.80000E+01, 1.15500E+02  3.80000E+01, 1.10500E+02  3.50000E+01, 1.10500E+02  3.50000E+01, 1.05500E+02  3.80000E+01, 1.05500E+02  3.80000E+01, 1.00500E+02  3.50000E+01, 1.00500E+02 "/>
	<polygon style="stroke-width:0.1;stroke:red;fill:white" points=" 7.00000E+01, 9.30000E+01  7.75000E+01, 9.30000E+01  7.75000E+01, 9.00000E+01  8.25000E+01, 9.00000E+01  8.25000E+01, 9.30000E+01  8.75000E+01, 9.30000E+01  8.75000E+01, 9.00000E+01  9.25000E+01, 9.00000E+01  9.25000E+01, 9.30000E+01  1.00000E+02, 9.30000E+01  1.00000E+02, 1.00500E+02  9.70000E+01, 1.00500E+02  9.70000E+01, 1.05500E+02  1.00000E+02, 1.05500E+02  1.00000E+02, 1.10500E+02  9.70000E+01, 1.10500E+02  9.70000E+01, 1.15500E+02  1.00000E+02, 1.15500E+02  1.00000E+02, 1.23000E+02  7.00000E+01, 1.23000E+02  7.00000E+01, 1.15500E+02  7.30000E+01, 1.15500E+02  7.30000E+01, 1.10500E+02  7.00000E+01, 1.10500E+02  7.00000E+01, 1.05500E+02  7.30000E+01, 1.05500E+02  7.30000E+01, 1.00500E+02  7.00000E+01, 1.00500E+02 "/>
	<polygon style="stroke-width:0.1;stroke:red;fill:white" points=" 1.08000E+02, 9.30000E+01  1.15500E+02, 9.30000E+01  1.15500E+02, 9.00000E+01  1.20500E+02, 9.00000E+01  1.20500E+02, 9.30000E+01  1.25500E+02, 9.30000E+01  1.25500E+02, 9.00000E+01  1.30500E+02, 9.00000E+01  1.30500E+02, 9.30000E+01  1.38000E+02, 9.30000E+01  1.38000E+02, 1.00500E+02  1.41000E+02, 1.00500E+02  1.41000E+02, 1.05500E+02  1.38000E+02, 1.05500E+02  1.38000E+02, 1.10500E+02  1.41000E+02, 1.10500E+02  1.41000E+02, 1.15500E+02  1.38000E+02, 1.15500E+02  1.38000E+02, 1.23000E+02  1.08000E+02, 1.23000E+02  1.08000E+02, 1.15500E+02  1.05000E+02, 1.15500E+02  1.05000E+02, 1.10500E+02  1.08000E+02, 1.10500E+02  1.08000E+02, 1.05500E+02  1.05000E+02, 1.05500E+02  1.05000E+02, 1.00500E+02  1.08000E+02, 1.00500E+02 "/>
	<polygon style="stroke-width:0.1;stroke:red;fill:white" points=" 1.48000E+02, 9.30000E+01  1.55500E+02, 9.30000E+01  1.55500E+02, 9.00000E+01  1.60500E+02, 9.00000E+01  1.60500E+02, 9.30000E+01  1.65500E+02, 9.30000E+01  1.65500E+02, 9.00000E+01  1.70500E+02, 9.00000E+01  1.70500E+02, 9.30000E+01  1.78000E+02, 9.30000E+01  1.78000E+02, 1.00500E+02  1.81000E+02, 1.00500E+02  1.81000E+02, 1.05500E+02  1.78000E+02, 1.05500E+02  1.78000E+02, 1.10500E+02  1.81000E+02, 1.10500E+02  1.81000E+02, 1.15500E+02  1.78000E+02, 1.15500E+02  1.78000E+02, 1.23000E+02  1.48000E+02, 1.23000E+02  1.48000E+02, 1.15500E+02  1.45000E+02, 1.15500E+02  1.45000E+02, 1.10500E+02  1.48000E+02, 1.10500E+02  1.48000E+02, 1.05500E+02  1.45000E+02, 1.05500E+02  1.45000E+02, 1.00500E+02  1.48000E+02, 1.00500E+02 "/>
</svg>
