<svg width=" 2870 " height=" 130 ">

<polygon points="0,0 5,0 10.0,0 10.0,5 40.0,5 40.0,0 70.0,0 70.0,5 100.0,5 100.0,0 130.0,0 130.0,5 160.0,5 160.0,0 190.0,0 190.0,5 220.0,5 220.0,0 225.0,0 230.0,0 230.0,5 230.0,20.0 230.0,50.0 225.0,50.0 225.0,80.0 230.0,80.0 230.0,110.0 230.0,125.0 230.0,130.0 225.0,130.0 220.0,130.0 220.0,125.0 190.0,125.0 190.0,130.0 160.0,130.0 160.0,125.0 130.0,125.0 130.0,130.0 100.0,130.0 100.0,125.0 70.0,125.0 70.0,130.0 40.0,130.0 40.0,125.0 10.0,125.0 10.0,130.0 5.0,130.0 0.0,130.0 0.0,125.0 0.0,110.0 0.0,80.0 5.0,80.0 5.0,50.0 0.0,50.0 0.0,20.0 0.0,5.0 0.0,0.0" style="fill:none;stroke:red;stroke-width:1"/>

<polygon points="235,5 240,5 245.0,5 245.0,0 275.0,0 275.0,5 305.0,5 305.0,0 335.0,0 335.0,5 365.0,5 365.0,0 395.0,0 395.0,5 425.0,5 425.0,0 455.0,0 455.0,5 460.0,5 465.0,5 465.0,10.0 460.0,10.0 460.0,40.0 465.0,40.0 465.0,70.0 460.0,70.0 460.0,100.0 465.0,100.0 465.0,105.0 465.0,110.0 235.0,110.0 235.0,105.0 235.0,100.0 240.0,100.0 240.0,70.0 235.0,70.0 235.0,40.0 240.0,40.0 240.0,10.0 235.0,10.0 235.0,5.0" style="fill:none;stroke:red;stroke-width:1"/>

<polygon points="470,5 475,5 480.0,5 480.0,0 510.0,0 510.0,5 540.0,5 540.0,0 570.0,0 570.0,5 600.0,5 600.0,0 630.0,0 630.0,5 660.0,5 660.0,0 690.0,0 690.0,5 695.0,5 700.0,5 700.0,10.0 695.0,10.0 695.0,40.0 700.0,40.0 700.0,70.0 695.0,70.0 695.0,100.0 700.0,100.0 700.0,105.0 700.0,110.0 470.0,110.0 470.0,105.0 470.0,100.0 475.0,100.0 475.0,70.0 470.0,70.0 470.0,40.0 475.0,40.0 475.0,10.0 470.0,10.0 470.0,5.0" style="fill:none;stroke:red;stroke-width:1"/>

<polygon points="710,5 725.0,5 755.0,5 755.0,0 785.0,0 785.0,5 815.0,5 830.0,5 830.0,10.0 835.0,10.0 835.0,40.0 830.0,40.0 830.0,70.0 835.0,70.0 835.0,100.0 830.0,100.0 830.0,105.0 830.0,110.0 710.0,110.0 710.0,105.0 710.0,100.0 705.0,100.0 705.0,70.0 710.0,70.0 710.0,40.0 705.0,40.0 705.0,10.0 710.0,10.0 710.0,5.0" style="fill:none;stroke:red;stroke-width:1"/>

<polygon points="845,5 860.0,5 890.0,5 890.0,0 920.0,0 920.0,5 950.0,5 965.0,5 965.0,10.0 970.0,10.0 970.0,40.0 965.0,40.0 965.0,70.0 970.0,70.0 970.0,100.0 965.0,100.0 965.0,105.0 965.0,110.0 845.0,110.0 845.0,105.0 845.0,100.0 840.0,100.0 840.0,70.0 845.0,70.0 845.0,40.0 840.0,40.0 840.0,10.0 845.0,10.0 845.0,5.0" style="fill:none;stroke:red;stroke-width:1"/>

<polygon points="975,0 980,0 985.0,0 985.0,5 1015.0,5 1015.0,0 1045.0,0 1045.0,5 1075.0,5 1075.0,0 1105.0,0 1105.0,5 1135.0,5 1135.0,0 1165.0,0 1165.0,5 1195.0,5 1195.0,0 1200.0,0 1205.0,0 1205.0,5 1205.0,20.0 1205.0,50.0 1200.0,50.0 1200.0,80.0 1205.0,80.0 1205.0,110.0 1205.0,125.0 1205.0,130.0 1200.0,130.0 1195.0,130.0 1195.0,125.0 1165.0,125.0 1165.0,130.0 1135.0,130.0 1135.0,125.0 1105.0,125.0 1105.0,130.0 1075.0,130.0 1075.0,125.0 1045.0,125.0 1045.0,130.0 1015.0,130.0 1015.0,125.0 985.0,125.0 985.0,130.0 980.0,130.0 975.0,130.0 975.0,125.0 975.0,110.0 975.0,80.0 980.0,80.0 980.0,50.0 975.0,50.0 975.0,20.0 975.0,5.0 975.0,0.0" style="fill:none;stroke:red;stroke-width:1"/>

<polygon points="1210,5 1215,5 1220.0,5 1220.0,0 1250.0,0 1250.0,5 1280.0,5 1280.0,0 1310.0,0 1310.0,5 1340.0,5 1340.0,0 1370.0,0 1370.0,5 1400.0,5 1400.0,0 1430.0,0 1430.0,5 1435.0,5 1440.0,5 1440.0,10.0 1435.0,10.0 1435.0,40.0 1440.0,40.0 1440.0,70.0 1435.0,70.0 1435.0,100.0 1440.0,100.0 1440.0,105.0 1440.0,110.0 1210.0,110.0 1210.0,105.0 1210.0,100.0 1215.0,100.0 1215.0,70.0 1210.0,70.0 1210.0,40.0 1215.0,40.0 1215.0,10.0 1210.0,10.0 1210.0,5.0" style="fill:none;stroke:red;stroke-width:1"/>

<polygon points="1445,5 1450,5 1455.0,5 1455.0,0 1485.0,0 1485.0,5 1515.0,5 1515.0,0 1545.0,0 1545.0,5 1575.0,5 1575.0,0 1605.0,0 1605.0,5 1635.0,5 1635.0,0 1665.0,0 1665.0,5 1670.0,5 1675.0,5 1675.0,10.0 1670.0,10.0 1670.0,40.0 1675.0,40.0 1675.0,70.0 1670.0,70.0 1670.0,100.0 1675.0,100.0 1675.0,105.0 1675.0,110.0 1445.0,110.0 1445.0,105.0 1445.0,100.0 1450.0,100.0 1450.0,70.0 1445.0,70.0 1445.0,40.0 1450.0,40.0 1450.0,10.0 1445.0,10.0 1445.0,5.0" style="fill:none;stroke:red;stroke-width:1"/>

<polygon points="1685,5 1700.0,5 1730.0,5 1730.0,0 1760.0,0 1760.0,5 1790.0,5 1805.0,5 1805.0,10.0 1810.0,10.0 1810.0,40.0 1805.0,40.0 1805.0,70.0 1810.0,70.0 1810.0,100.0 1805.0,100.0 1805.0,105.0 1805.0,110.0 1685.0,110.0 1685.0,105.0 1685.0,100.0 1680.0,100.0 1680.0,70.0 1685.0,70.0 1685.0,40.0 1680.0,40.0 1680.0,10.0 1685.0,10.0 1685.0,5.0" style="fill:none;stroke:red;stroke-width:1"/>

<polygon points="1820,5 1835.0,5 1865.0,5 1865.0,0 1895.0,0 1895.0,5 1925.0,5 1940.0,5 1940.0,10.0 1945.0,10.0 1945.0,40.0 1940.0,40.0 1940.0,70.0 1945.0,70.0 1945.0,100.0 1940.0,100.0 1940.0,105.0 1940.0,110.0 1820.0,110.0 1820.0,105.0 1820.0,100.0 1815.0,100.0 1815.0,70.0 1820.0,70.0 1820.0,40.0 1815.0,40.0 1815.0,10.0 1820.0,10.0 1820.0,5.0" style="fill:none;stroke:red;stroke-width:1"/>

<polygon points="1950,0 1955,0 1955,5 1985,5 1985,0 2015,0 2015,5 2045,5 2045,0 2075,0 2075,5 2105,5 2105,0 2135,0 2135,5 2165,5 2165,0 2170,0 2170,5 2170,15.0 2170,45.0 2165,45.0 2165,75.0 2170,75.0 2170,105.0 2170,115.0 2170,120.0 2165,120.0 2165,115.0 2135,115.0 2135,120.0 2105,120.0 2105,115.0 2075,115.0 2075,120.0 2045,120.0 2045,115.0 2015,115.0 2015,120.0 1985,120.0 1985,115.0 1955,115.0 1955,120.0 1950,120.0 1950,115.0 1950,105.0 1950,75.0 1955,75.0 1955,45.0 1950,45.0 1950,15.0 1950,5.0 1950,0.0" style="fill:none;stroke:red;stroke-width:1"/>

<polygon points="2175,5 2180,5 2180,0 2210,0 2210,5 2240,5 2240,0 2270,0 2270,5 2300,5 2300,0 2330,0 2330,5 2360,5 2360,0 2390,0 2390,5 2395,5 2395,15.0 2390,15.0 2390,45.0 2395,45.0 2395,75.0 2390,75.0 2390,105.0 2395,105.0 2395,115.0 2395,120.0 2175,120.0 2175,115.0 2175,105.0 2180,105.0 2180,75.0 2175,75.0 2175,45.0 2180,45.0 2180,15.0 2175,15.0 2175,5.0" style="fill:none;stroke:red;stroke-width:1"/>

<polygon points="2400,5 2405,5 2405,0 2435,0 2435,5 2465,5 2465,0 2495,0 2495,5 2525,5 2525,0 2555,0 2555,5 2585,5 2585,0 2615,0 2615,5 2620,5 2620,15.0 2615,15.0 2615,45.0 2620,45.0 2620,75.0 2615,75.0 2615,105.0 2620,105.0 2620,115.0 2620,120.0 2400,120.0 2400,115.0 2400,105.0 2405,105.0 2405,75.0 2400,75.0 2400,45.0 2405,45.0 2405,15.0 2400,15.0 2400,5.0" style="fill:none;stroke:red;stroke-width:1"/>

<polygon points="2630,5 2640.0,5 2670.0,5 2670.0,0 2700.0,0 2700.0,5 2730.0,5 2740.0,5 2740.0,15.0 2745.0,15.0 2745.0,45.0 2740.0,45.0 2740.0,75.0 2745.0,75.0 2745.0,105.0 2740.0,105.0 2740.0,115.0 2740.0,120.0 2630.0,120.0 2630.0,115.0 2630.0,105.0 2625.0,105.0 2625.0,75.0 2630.0,75.0 2630.0,45.0 2625.0,45.0 2625.0,15.0 2630.0,15.0 2630.0,5.0" style="fill:none;stroke:red;stroke-width:1"/>

<polygon points="2755,5 2765.0,5 2795.0,5 2795.0,0 2825.0,0 2825.0,5 2855.0,5 2865.0,5 2865.0,15.0 2870.0,15.0 2870.0,45.0 2865.0,45.0 2865.0,75.0 2870.0,75.0 2870.0,105.0 2865.0,105.0 2865.0,115.0 2865.0,120.0 2755.0,120.0 2755.0,115.0 2755.0,105.0 2750.0,105.0 2750.0,75.0 2755.0,75.0 2755.0,45.0 2750.0,45.0 2750.0,15.0 2755.0,15.0 2755.0,5.0" style="fill:none;stroke:red;stroke-width:1"/>

</svg>
