<svg xmlns="http://www.w3.org/2000/svg" width="2870" height="130">

<polygon points="0,0 5,0 10.0,0 10.0,5 20.0,5 20.0,0 30.0,0 30.0,5 40.0,5 40.0,0 50.0,0 50.0,5 60.0,5 60.0,0 70.0,0 70.0,5 80.0,5 80.0,0 90.0,0 90.0,5 100.0,5 100.0,0 110.0,0 110.0,5 120.0,5 120.0,0 130.0,0 130.0,5 140.0,5 140.0,0 150.0,0 150.0,5 160.0,5 160.0,0 170.0,0 170.0,5 180.0,5 180.0,0 190.0,0 190.0,5 200.0,5 200.0,0 210.0,0 210.0,5 220.0,5 220.0,0 225.0,0 230.0,0 230.0,5 230.0,10.0 230.0,20.0 225.0,20.0 225.0,30.0 230.0,30.0 230.0,40.0 225.0,40.0 225.0,50.0 230.0,50.0 230.0,60.0 225.0,60.0 225.0,70.0 230.0,70.0 230.0,80.0 225.0,80.0 225.0,90.0 230.0,90.0 230.0,100.0 225.0,100.0 225.0,110.0 230.0,110.0 230.0,120.0 230.0,125.0 230.0,130.0 225.0,130.0 220.0,130.0 220.0,125.0 210.0,125.0 210.0,130.0 200.0,130.0 200.0,125.0 190.0,125.0 190.0,130.0 180.0,130.0 180.0,125.0 170.0,125.0 170.0,130.0 160.0,130.0 160.0,125.0 150.0,125.0 150.0,130.0 140.0,130.0 140.0,125.0 130.0,125.0 130.0,130.0 120.0,130.0 120.0,125.0 110.0,125.0 110.0,130.0 100.0,130.0 100.0,125.0 90.0,125.0 90.0,130.0 80.0,130.0 80.0,125.0 70.0,125.0 70.0,130.0 60.0,130.0 60.0,125.0 50.0,125.0 50.0,130.0 40.0,130.0 40.0,125.0 30.0,125.0 30.0,130.0 20.0,130.0 20.0,125.0 10.0,125.0 10.0,130.0 5.0,130.0 0.0,130.0 0.0,125.0 0.0,120.0 0.0,110.0 5.0,110.0 5.0,100.0 0.0,100.0 0.0,90.0 5.0,90.0 5.0,80.0 0.0,80.0 0.0,70.0 5.0,70.0 5.0,60.0 0.0,60.0 0.0,50.0 5.0,50.0 5.0,40.0 0.0,40.0 0.0,30.0 5.0,30.0 5.0,20.0 0.0,20.0 0.0,10.0 0.0,5.0 0.0,0.0" style="fill:none;stroke:red;stroke-width:1"/>

<polygon points="235,5 240,5 245.0,5 245.0,0 255.0,0 255.0,5 265.0,5 265.0,0 275.0,0 275.0,5 285.0,5 285.0,0 295.0,0 295.0,5 305.0,5 305.0,0 315.0,0 315.0,5 325.0,5 325.0,0 335.0,0 335.0,5 345.0,5 345.0,0 355.0,0 355.0,5 365.0,5 365.0,0 375.0,0 375.0,5 385.0,5 385.0,0 395.0,0 395.0,5 405.0,5 405.0,0 415.0,0 415.0,5 425.0,5 425.0,0 435.0,0 435.0,5 445.0,5 445.0,0 455.0,0 455.0,5 460.0,5 465.0,5 465.0,10.0 460.0,10.0 460.0,20.0 465.0,20.0 465.0,30.0 460.0,30.0 460.0,40.0 465.0,40.0 465.0,50.0 460.0,50.0 460.0,60.0 465.0,60.0 465.0,70.0 460.0,70.0 460.0,80.0 465.0,80.0 465.0,90.0 460.0,90.0 460.0,100.0 465.0,100.0 465.0,105.0 465.0,110.0 235.0,110.0 235.0,105.0 235.0,100.0 240.0,100.0 240.0,90.0 235.0,90.0 235.0,80.0 240.0,80.0 240.0,70.0 235.0,70.0 235.0,60.0 240.0,60.0 240.0,50.0 235.0,50.0 235.0,40.0 240.0,40.0 240.0,30.0 235.0,30.0 235.0,20.0 240.0,20.0 240.0,10.0 235.0,10.0 235.0,5.0" style="fill:none;stroke:red;stroke-width:1"/>

<polygon points="470,5 475,5 480.0,5 480.0,0 490.0,0 490.0,5 500.0,5 500.0,0 510.0,0 510.0,5 520.0,5 520.0,0 530.0,0 530.0,5 540.0,5 540.0,0 550.0,0 550.0,5 560.0,5 560.0,0 570.0,0 570.0,5 580.0,5 580.0,0 590.0,0 590.0,5 600.0,5 600.0,0 610.0,0 610.0,5 620.0,5 620.0,0 630.0,0 630.0,5 640.0,5 640.0,0 650.0,0 650.0,5 660.0,5 660.0,0 670.0,0 670.0,5 680.0,5 680.0,0 690.0,0 690.0,5 695.0,5 700.0,5 700.0,10.0 695.0,10.0 695.0,20.0 700.0,20.0 700.0,30.0 695.0,30.0 695.0,40.0 700.0,40.0 700.0,50.0 695.0,50.0 695.0,60.0 700.0,60.0 700.0,70.0 695.0,70.0 695.0,80.0 700.0,80.0 700.0,90.0 695.0,90.0 695.0,100.0 700.0,100.0 700.0,105.0 700.0,110.0 470.0,110.0 470.0,105.0 470.0,100.0 475.0,100.0 475.0,90.0 470.0,90.0 470.0,80.0 475.0,80.0 475.0,70.0 470.0,70.0 470.0,60.0 475.0,60.0 475.0,50.0 470.0,50.0 470.0,40.0 475.0,40.0 475.0,30.0 470.0,30.0 470.0,20.0 475.0,20.0 475.0,10.0 470.0,10.0 470.0,5.0" style="fill:none;stroke:red;stroke-width:1"/>

<polygon points="710,5 715.0,5 725.0,5 725.0,0 735.0,0 735.0,5 745.0,5 745.0,0 755.0,0 755.0,5 765.0,5 765.0,0 775.0,0 775.0,5 785.0,5 785.0,0 795.0,0 795.0,5 805.0,5 805.0,0 815.0,0 815.0,5 825.0,5 830.0,5 830.0,10.0 835.0,10.0 835.0,20.0 830.0,20.0 830.0,30.0 835.0,30.0 835.0,40.0 830.0,40.0 830.0,50.0 835.0,50.0 835.0,60.0 830.0,60.0 830.0,70.0 835.0,70.0 835.0,80.0 830.0,80.0 830.0,90.0 835.0,90.0 835.0,100.0 830.0,100.0 830.0,105.0 830.0,110.0 710.0,110.0 710.0,105.0 710.0,100.0 705.0,100.0 705.0,90.0 710.0,90.0 710.0,80.0 705.0,80.0 705.0,70.0 710.0,70.0 710.0,60.0 705.0,60.0 705.0,50.0 710.0,50.0 710.0,40.0 705.0,40.0 705.0,30.0 710.0,30.0 710.0,20.0 705.0,20.0 705.0,10.0 710.0,10.0 710.0,5.0" style="fill:none;stroke:red;stroke-width:1"/>

<polygon points="845,5 850.0,5 860.0,5 860.0,0 870.0,0 870.0,5 880.0,5 880.0,0 890.0,0 890.0,5 900.0,5 900.0,0 910.0,0 910.0,5 920.0,5 920.0,0 930.0,0 930.0,5 940.0,5 940.0,0 950.0,0 950.0,5 960.0,5 965.0,5 965.0,10.0 970.0,10.0 970.0,20.0 965.0,20.0 965.0,30.0 970.0,30.0 970.0,40.0 965.0,40.0 965.0,50.0 970.0,50.0 970.0,60.0 965.0,60.0 965.0,70.0 970.0,70.0 970.0,80.0 965.0,80.0 965.0,90.0 970.0,90.0 970.0,100.0 965.0,100.0 965.0,105.0 965.0,110.0 845.0,110.0 845.0,105.0 845.0,100.0 840.0,100.0 840.0,90.0 845.0,90.0 845.0,80.0 840.0,80.0 840.0,70.0 845.0,70.0 845.0,60.0 840.0,60.0 840.0,50.0 845.0,50.0 845.0,40.0 840.0,40.0 840.0,30.0 845.0,30.0 845.0,20.0 840.0,20.0 840.0,10.0 845.0,10.0 845.0,5.0" style="fill:none;stroke:red;stroke-width:1"/>

<polygon points="975,0 980,0 985.0,0 985.0,5 995.0,5 995.0,0 1005.0,0 1005.0,5 1015.0,5 1015.0,0 1025.0,0 1025.0,5 1035.0,5 1035.0,0 1045.0,0 1045.0,5 1055.0,5 1055.0,0 1065.0,0 1065.0,5 1075.0,5 1075.0,0 1085.0,0 1085.0,5 1095.0,5 1095.0,0 1105.0,0 1105.0,5 1115.0,5 1115.0,0 1125.0,0 1125.0,5 1135.0,5 1135.0,0 1145.0,0 1145.0,5 1155.0,5 1155.0,0 1165.0,0 1165.0,5 1175.0,5 1175.0,0 1185.0,0 1185.0,5 1195.0,5 1195.0,0 1200.0,0 1205.0,0 1205.0,5 1205.0,10.0 1205.0,20.0 1200.0,20.0 1200.0,30.0 1205.0,30.0 1205.0,40.0 1200.0,40.0 1200.0,50.0 1205.0,50.0 1205.0,60.0 1200.0,60.0 1200.0,70.0 1205.0,70.0 1205.0,80.0 1200.0,80.0 1200.0,90.0 1205.0,90.0 1205.0,100.0 1200.0,100.0 1200.0,110.0 1205.0,110.0 1205.0,120.0 1205.0,125.0 1205.0,130.0 1200.0,130.0 1195.0,130.0 1195.0,125.0 1185.0,125.0 1185.0,130.0 1175.0,130.0 1175.0,125.0 1165.0,125.0 1165.0,130.0 1155.0,130.0 1155.0,125.0 1145.0,125.0 1145.0,130.0 1135.0,130.0 1135.0,125.0 1125.0,125.0 1125.0,130.0 1115.0,130.0 1115.0,125.0 1105.0,125.0 1105.0,130.0 1095.0,130.0 1095.0,125.0 1085.0,125.0 1085.0,130.0 1075.0,130.0 1075.0,125.0 1065.0,125.0 1065.0,130.0 1055.0,130.0 1055.0,125.0 1045.0,125.0 1045.0,130.0 1035.0,130.0 1035.0,125.0 1025.0,125.0 1025.0,130.0 1015.0,130.0 1015.0,125.0 1005.0,125.0 1005.0,130.0 995.0,130.0 995.0,125.0 985.0,125.0 985.0,130.0 980.0,130.0 975.0,130.0 975.0,125.0 975.0,120.0 975.0,110.0 980.0,110.0 980.0,100.0 975.0,100.0 975.0,90.0 980.0,90.0 980.0,80.0 975.0,80.0 975.0,70.0 980.0,70.0 980.0,60.0 975.0,60.0 975.0,50.0 980.0,50.0 980.0,40.0 975.0,40.0 975.0,30.0 980.0,30.0 980.0,20.0 975.0,20.0 975.0,10.0 975.0,5.0 975.0,0.0" style="fill:none;stroke:red;stroke-width:1"/>

<polygon points="1210,5 1215,5 1220.0,5 1220.0,0 1230.0,0 1230.0,5 1240.0,5 1240.0,0 1250.0,0 1250.0,5 1260.0,5 1260.0,0 1270.0,0 1270.0,5 1280.0,5 1280.0,0 1290.0,0 1290.0,5 1300.0,5 1300.0,0 1310.0,0 1310.0,5 1320.0,5 1320.0,0 1330.0,0 1330.0,5 1340.0,5 1340.0,0 1350.0,0 1350.0,5 1360.0,5 1360.0,0 1370.0,0 1370.0,5 1380.0,5 1380.0,0 1390.0,0 1390.0,5 1400.0,5 1400.0,0 1410.0,0 1410.0,5 1420.0,5 1420.0,0 1430.0,0 1430.0,5 1435.0,5 1440.0,5 1440.0,10.0 1435.0,10.0 1435.0,20.0 1440.0,20.0 1440.0,30.0 1435.0,30.0 1435.0,40.0 1440.0,40.0 1440.0,50.0 1435.0,50.0 1435.0,60.0 1440.0,60.0 1440.0,70.0 1435.0,70.0 1435.0,80.0 1440.0,80.0 1440.0,90.0 1435.0,90.0 1435.0,100.0 1440.0,100.0 1440.0,105.0 1440.0,110.0 1210.0,110.0 1210.0,105.0 1210.0,100.0 1215.0,100.0 1215.0,90.0 1210.0,90.0 1210.0,80.0 1215.0,80.0 1215.0,70.0 1210.0,70.0 1210.0,60.0 1215.0,60.0 1215.0,50.0 1210.0,50.0 1210.0,40.0 1215.0,40.0 1215.0,30.0 1210.0,30.0 1210.0,20.0 1215.0,20.0 1215.0,10.0 1210.0,10.0 1210.0,5.0" style="fill:none;stroke:red;stroke-width:1"/>

<polygon points="1445,5 1450,5 1455.0,5 1455.0,0 1465.0,0 1465.0,5 1475.0,5 1475.0,0 1485.0,0 1485.0,5 1495.0,5 1495.0,0 1505.0,0 1505.0,5 1515.0,5 1515.0,0 1525.0,0 1525.0,5 1535.0,5 1535.0,0 1545.0,0 1545.0,5 1555.0,5 1555.0,0 1565.0,0 1565.0,5 1575.0,5 1575.0,0 1585.0,0 1585.0,5 1595.0,5 1595.0,0 1605.0,0 1605.0,5 1615.0,5 1615.0,0 1625.0,0 1625.0,5 1635.0,5 1635.0,0 1645.0,0 1645.0,5 1655.0,5 1655.0,0 1665.0,0 1665.0,5 1670.0,5 1675.0,5 1675.0,10.0 1670.0,10.0 1670.0,20.0 1675.0,20.0 1675.0,30.0 1670.0,30.0 1670.0,40.0 1675.0,40.0 1675.0,50.0 1670.0,50.0 1670.0,60.0 1675.0,60.0 1675.0,70.0 1670.0,70.0 1670.0,80.0 1675.0,80.0 1675.0,90.0 1670.0,90.0 1670.0,100.0 1675.0,100.0 1675.0,105.0 1675.0,110.0 1445.0,110.0 1445.0,105.0 1445.0,100.0 1450.0,100.0 1450.0,90.0 1445.0,90.0 1445.0,80.0 1450.0,80.0 1450.0,70.0 1445.0,70.0 1445.0,60.0 1450.0,60.0 1450.0,50.0 1445.0,50.0 1445.0,40.0 1450.0,40.0 1450.0,30.0 1445.0,30.0 1445.0,20.0 1450.0,20.0 1450.0,10.0 1445.0,10.0 1445.0,5.0" style="fill:none;stroke:red;stroke-width:1"/>

<polygon points="1685,5 1690.0,5 1700.0,5 1700.0,0 1710.0,0 1710.0,5 1720.0,5 1720.0,0 1730.0,0 1730.0,5 1740.0,5 1740.0,0 1750.0,0 1750.0,5 1760.0,5 1760.0,0 1770.0,0 1770.0,5 1780.0,5 1780.0,0 1790.0,0 1790.0,5 1800.0,5 1805.0,5 1805.0,10.0 1810.0,10.0 1810.0,20.0 1805.0,20.0 1805.0,30.0 1810.0,30.0 1810.0,40.0 1805.0,40.0 1805.0,50.0 1810.0,50.0 1810.0,60.0 1805.0,60.0 1805.0,70.0 1810.0,70.0 1810.0,80.0 1805.0,80.0 1805.0,90.0 1810.0,90.0 1810.0,100.0 1805.0,100.0 1805.0,105.0 1805.0,110.0 1685.0,110.0 1685.0,105.0 1685.0,100.0 1680.0,100.0 1680.0,90.0 1685.0,90.0 1685.0,80.0 1680.0,80.0 1680.0,70.0 1685.0,70.0 1685.0,60.0 1680.0,60.0 1680.0,50.0 1685.0,50.0 1685.0,40.0 1680.0,40.0 1680.0,30.0 1685.0,30.0 1685.0,20.0 1680.0,20.0 1680.0,10.0 1685.0,10.0 1685.0,5.0" style="fill:none;stroke:red;stroke-width:1"/>

<polygon points="1820,5 1825.0,5 1835.0,5 1835.0,0 1845.0,0 1845.0,5 1855.0,5 1855.0,0 1865.0,0 1865.0,5 1875.0,5 1875.0,0 1885.0,0 1885.0,5 1895.0,5 1895.0,0 1905.0,0 1905.0,5 1915.0,5 1915.0,0 1925.0,0 1925.0,5 1935.0,5 1940.0,5 1940.0,10.0 1945.0,10.0 1945.0,20.0 1940.0,20.0 1940.0,30.0 1945.0,30.0 1945.0,40.0 1940.0,40.0 1940.0,50.0 1945.0,50.0 1945.0,60.0 1940.0,60.0 1940.0,70.0 1945.0,70.0 1945.0,80.0 1940.0,80.0 1940.0,90.0 1945.0,90.0 1945.0,100.0 1940.0,100.0 1940.0,105.0 1940.0,110.0 1820.0,110.0 1820.0,105.0 1820.0,100.0 1815.0,100.0 1815.0,90.0 1820.0,90.0 1820.0,80.0 1815.0,80.0 1815.0,70.0 1820.0,70.0 1820.0,60.0 1815.0,60.0 1815.0,50.0 1820.0,50.0 1820.0,40.0 1815.0,40.0 1815.0,30.0 1820.0,30.0 1820.0,20.0 1815.0,20.0 1815.0,10.0 1820.0,10.0 1820.0,5.0" style="fill:none;stroke:red;stroke-width:1"/>

<polygon points="1950,0 1955,0 1955,5 1965,5 1965,0 1975,0 1975,5 1985,5 1985,0 1995,0 1995,5 2005,5 2005,0 2015,0 2015,5 2025,5 2025,0 2035,0 2035,5 2045,5 2045,0 2055,0 2055,5 2065,5 2065,0 2075,0 2075,5 2085,5 2085,0 2095,0 2095,5 2105,5 2105,0 2115,0 2115,5 2125,5 2125,0 2135,0 2135,5 2145,5 2145,0 2155,0 2155,5 2165,5 2165,0 2170,0 2170,5 2170,15 2165,15 2165,25 2170,25 2170,35 2165,35 2165,45 2170,45 2170,55 2165,55 2165,65 2170,65 2170,75 2165,75 2165,85 2170,85 2170,95 2165,95 2165,105 2170,105 2170,115 2170,120 2165,120 2165,115 2155,115 2155,120 2145,120 2145,115 2135,115 2135,120 2125,120 2125,115 2115,115 2115,120 2105,120 2105,115 2095,115 2095,120 2085,120 2085,115 2075,115 2075,120 2065,120 2065,115 2055,115 2055,120 2045,120 2045,115 2035,115 2035,120 2025,120 2025,115 2015,115 2015,120 2005,120 2005,115 1995,115 1995,120 1985,120 1985,115 1975,115 1975,120 1965,120 1965,115 1955,115 1955,120 1950,120 1950,115 1950,105 1955,105 1955,95 1950,95 1950,85 1955,85 1955,75 1950,75 1950,65 1955,65 1955,55 1950,55 1950,45 1955,45 1955,35 1950,35 1950,25 1955,25 1955,15 1950,15 1950,5 1950,0" style="fill:none;stroke:red;stroke-width:1"/>

<polygon points="2180,5 2180,0 2190,0 2190,5 2200,5 2200,0 2210,0 2210,5 2220,5 2220,0 2230,0 2230,5 2240,5 2240,0 2250,0 2250,5 2260,5 2260,0 2270,0 2270,5 2280,5 2280,0 2290,0 2290,5 2300,5 2300,0 2310,0 2310,5 2320,5 2320,0 2330,0 2330,5 2340,5 2340,0 2350,0 2350,5 2360,5 2360,0 2370,0 2370,5 2380,5 2380,0 2390,0 2390,5 2390,15 2395,15 2395,25 2390,25 2390,35 2395,35 2395,45 2390,45 2390,55 2395,55 2395,65 2390,65 2390,75 2395,75 2395,85 2390,85 2390,95 2395,95 2395,105 2390,105 2390,115 2395,115 2395,120 2175,120 2175,115 2180,115 2180,105 2175,105 2175,95 2180,95 2180,85 2175,85 2175,75 2180,75 2180,65 2175,65 2175,55 2180,55 2180,45 2175,45 2175,35 2180,35 2180,25 2175,25 2175,15 2180,15 2180,5" style="fill:none;stroke:red;stroke-width:1"/>

<polygon points="2405,5 2405,0 2415,0 2415,5 2425,5 2425,0 2435,0 2435,5 2445,5 2445,0 2455,0 2455,5 2465,5 2465,0 2475,0 2475,5 2485,5 2485,0 2495,0 2495,5 2505,5 2505,0 2515,0 2515,5 2525,5 2525,0 2535,0 2535,5 2545,5 2545,0 2555,0 2555,5 2565,5 2565,0 2575,0 2575,5 2585,5 2585,0 2595,0 2595,5 2605,5 2605,0 2615,0 2615,5 2615,15 2620,15 2620,25 2615,25 2615,35 2620,35 2620,45 2615,45 2615,55 2620,55 2620,65 2615,65 2615,75 2620,75 2620,85 2615,85 2615,95 2620,95 2620,105 2615,105 2615,115 2620,115 2620,120 2400,120 2400,115 2405,115 2405,105 2400,105 2400,95 2405,95 2405,85 2400,85 2400,75 2405,75 2405,65 2400,65 2400,55 2405,55 2405,45 2400,45 2400,35 2405,35 2405,25 2400,25 2400,15 2405,15 2405,5" style="fill:none;stroke:red;stroke-width:1"/>

<polygon points="2630,5 2640,5 2640,0 2650,0 2650,5 2660,5 2660,0 2670,0 2670,5 2680,5 2680,0 2690,0 2690,5 2700,5 2700,0 2710,0 2710,5 2720,5 2720,0 2730,0 2730,5 2740,5 2745,5 2745,15 2740,15 2740,25 2745,25 2745,35 2740,35 2740,45 2745,45 2745,55 2740,55 2740,65 2745,65 2745,75 2740,75 2740,85 2745,85 2745,95 2740,95 2740,105 2745,105 2745,115 2740,115 2740,120 2630,120 2630,115 2625,115 2625,105 2630,105 2630,95 2625,95 2625,85 2630,85 2630,75 2625,75 2625,65 2630,65 2630,55 2625,55 2625,45 2630,45 2630,35 2625,35 2625,25 2630,25 2630,15 2625,15 2625,5 2630,5" style="fill:none;stroke:red;stroke-width:1"/>

<polygon points="2755,5 2765,5 2765,0 2775,0 2775,5 2785,5 2785,0 2795,0 2795,5 2805,5 2805,0 2815,0 2815,5 2825,5 2825,0 2835,0 2835,5 2845,5 2845,0 2855,0 2855,5 2865,5 2870,5 2870,15 2865,15 2865,25 2870,25 2870,35 2865,35 2865,45 2870,45 2870,55 2865,55 2865,65 2870,65 2870,75 2865,75 2865,85 2870,85 2870,95 2865,95 2865,105 2870,105 2870,115 2865,115 2865,120 2755,120 2755,115 2750,115 2750,105 2755,105 2755,95 2750,95 2750,85 2755,85 2755,75 2750,75 2750,65 2755,65 2755,55 2750,55 2750,45 2755,45 2755,35 2750,35 2750,25 2755,25 2755,15 2750,15 2750,5 2755,5" style="fill:none;stroke:red;stroke-width:1"/>

</svg>
