<svg width=" 3620 " height=" 240 ">

<polygon points="0,0 5,0 10.0,0 10.0,5 30.0,5 30.0,0 50.0,0 50.0,5 70.0,5 70.0,0 90.0,0 90.0,5 110.0,5 110.0,0 130.0,0 130.0,5 150.0,5 150.0,0 170.0,0 170.0,5 190.0,5 190.0,0 210.0,0 210.0,5 230.0,5 230.0,0 235.0,0 240.0,0 240.0,5 240.0,10.0 240.0,30.0 235.0,30.0 235.0,50.0 240.0,50.0 240.0,70.0 235.0,70.0 235.0,90.0 240.0,90.0 240.0,110.0 235.0,110.0 235.0,130.0 240.0,130.0 240.0,150.0 235.0,150.0 235.0,170.0 240.0,170.0 240.0,190.0 235.0,190.0 235.0,210.0 240.0,210.0 240.0,230.0 240.0,235.0 240.0,240.0 235.0,240.0 230.0,240.0 230.0,235.0 210.0,235.0 210.0,240.0 190.0,240.0 190.0,235.0 170.0,235.0 170.0,240.0 150.0,240.0 150.0,235.0 130.0,235.0 130.0,240.0 110.0,240.0 110.0,235.0 90.0,235.0 90.0,240.0 70.0,240.0 70.0,235.0 50.0,235.0 50.0,240.0 30.0,240.0 30.0,235.0 10.0,235.0 10.0,240.0 5.0,240.0 0.0,240.0 0.0,235.0 0.0,230.0 0.0,210.0 5.0,210.0 5.0,190.0 0.0,190.0 0.0,170.0 5.0,170.0 5.0,150.0 0.0,150.0 0.0,130.0 5.0,130.0 5.0,110.0 0.0,110.0 0.0,90.0 5.0,90.0 5.0,70.0 0.0,70.0 0.0,50.0 5.0,50.0 5.0,30.0 0.0,30.0 0.0,10.0 0.0,5.0 0.0,0.0" style="fill:none;stroke:red;stroke-width:1"/>

<polygon points="250,5 255.0,5 255.0,0 275.0,0 275.0,5 295.0,5 295.0,0 315.0,0 315.0,5 335.0,5 335.0,0 355.0,0 355.0,5 375.0,5 375.0,0 395.0,0 395.0,5 415.0,5 415.0,0 435.0,0 435.0,5 455.0,5 455.0,0 475.0,0 475.0,5 480.0,5 480.0,25 485.0,25 485.0,45 480.0,45 480.0,65 485.0,65 485.0,85 480.0,85 480.0,105 485.0,105 485.0,110 245.0,110 245.0,105 250.0,105 250.0,85 245.0,85 245.0,65 250.0,65 250.0,45 245.0,45 245.0,25 250.0,25 250.0,5" style="fill:none;stroke:red;stroke-width:1"/>

<polygon points="495,5 500.0,5 500.0,0 520.0,0 520.0,5 540.0,5 540.0,0 560.0,0 560.0,5 580.0,5 580.0,0 600.0,0 600.0,5 620.0,5 620.0,0 640.0,0 640.0,5 660.0,5 660.0,0 680.0,0 680.0,5 700.0,5 700.0,0 720.0,0 720.0,5 725.0,5 725.0,25 730.0,25 730.0,45 725.0,45 725.0,65 730.0,65 730.0,85 725.0,85 725.0,105 730.0,105 730.0,110 490.0,110 490.0,105 495.0,105 495.0,85 490.0,85 490.0,65 495.0,65 495.0,45 490.0,45 490.0,25 495.0,25 495.0,5" style="fill:none;stroke:red;stroke-width:1"/>

<polygon points="740,5 745.0,5 765.0,5 765.0,0 785.0,0 785.0,5 805.0,5 805.0,0 825.0,0 825.0,5 845.0,5 845.0,0 865.0,0 865.0,5 885.0,5 885.0,0 905.0,0 905.0,5 925.0,5 925.0,0 945.0,0 945.0,5 965.0,5 970.0,5 975.0,5 975.0,25 970.0,25 970.0,45 975.0,45 975.0,65 970.0,65 970.0,85 975.0,85 975.0,105 970.0,105 970.0,110 740.0,110 740.0,105 735.0,105 735.0,85 740.0,85 740.0,65 735.0,65 735.0,45 740.0,45 740.0,25 735.0,25 735.0,5 740.0,5" style="fill:none;stroke:red;stroke-width:1"/>

<polygon points="985,5 990.0,5 1010.0,5 1010.0,0 1030.0,0 1030.0,5 1050.0,5 1050.0,0 1070.0,0 1070.0,5 1090.0,5 1090.0,0 1110.0,0 1110.0,5 1130.0,5 1130.0,0 1150.0,0 1150.0,5 1170.0,5 1170.0,0 1190.0,0 1190.0,5 1210.0,5 1215.0,5 1220.0,5 1220.0,25 1215.0,25 1215.0,45 1220.0,45 1220.0,65 1215.0,65 1215.0,85 1220.0,85 1220.0,105 1215.0,105 1215.0,110 985.0,110 985.0,105 980.0,105 980.0,85 985.0,85 985.0,65 980.0,65 980.0,45 985.0,45 985.0,25 980.0,25 980.0,5 985.0,5" style="fill:none;stroke:red;stroke-width:1"/>

<polygon points="1225,0 1230,0 1235.0,0 1235.0,5 1255.0,5 1255.0,0 1275.0,0 1275.0,5 1295.0,5 1295.0,0 1315.0,0 1315.0,5 1335.0,5 1335.0,0 1355.0,0 1355.0,5 1375.0,5 1375.0,0 1395.0,0 1395.0,5 1415.0,5 1415.0,0 1435.0,0 1435.0,5 1455.0,5 1455.0,0 1460.0,0 1465.0,0 1465.0,5 1465.0,10.0 1465.0,30.0 1460.0,30.0 1460.0,50.0 1465.0,50.0 1465.0,70.0 1460.0,70.0 1460.0,90.0 1465.0,90.0 1465.0,110.0 1460.0,110.0 1460.0,130.0 1465.0,130.0 1465.0,150.0 1460.0,150.0 1460.0,170.0 1465.0,170.0 1465.0,190.0 1460.0,190.0 1460.0,210.0 1465.0,210.0 1465.0,230.0 1465.0,235.0 1465.0,240.0 1460.0,240.0 1455.0,240.0 1455.0,235.0 1435.0,235.0 1435.0,240.0 1415.0,240.0 1415.0,235.0 1395.0,235.0 1395.0,240.0 1375.0,240.0 1375.0,235.0 1355.0,235.0 1355.0,240.0 1335.0,240.0 1335.0,235.0 1315.0,235.0 1315.0,240.0 1295.0,240.0 1295.0,235.0 1275.0,235.0 1275.0,240.0 1255.0,240.0 1255.0,235.0 1235.0,235.0 1235.0,240.0 1230.0,240.0 1225.0,240.0 1225.0,235.0 1225.0,230.0 1225.0,210.0 1230.0,210.0 1230.0,190.0 1225.0,190.0 1225.0,170.0 1230.0,170.0 1230.0,150.0 1225.0,150.0 1225.0,130.0 1230.0,130.0 1230.0,110.0 1225.0,110.0 1225.0,90.0 1230.0,90.0 1230.0,70.0 1225.0,70.0 1225.0,50.0 1230.0,50.0 1230.0,30.0 1225.0,30.0 1225.0,10.0 1225.0,5.0 1225.0,0.0" style="fill:none;stroke:red;stroke-width:1"/>

<polygon points="1475,5 1480.0,5 1480.0,0 1500.0,0 1500.0,5 1520.0,5 1520.0,0 1540.0,0 1540.0,5 1560.0,5 1560.0,0 1580.0,0 1580.0,5 1600.0,5 1600.0,0 1620.0,0 1620.0,5 1640.0,5 1640.0,0 1660.0,0 1660.0,5 1680.0,5 1680.0,0 1700.0,0 1700.0,5 1705.0,5 1705.0,25 1710.0,25 1710.0,45 1705.0,45 1705.0,65 1710.0,65 1710.0,85 1705.0,85 1705.0,105 1710.0,105 1710.0,110 1470.0,110 1470.0,105 1475.0,105 1475.0,85 1470.0,85 1470.0,65 1475.0,65 1475.0,45 1470.0,45 1470.0,25 1475.0,25 1475.0,5" style="fill:none;stroke:red;stroke-width:1"/>

<polygon points="1720,5 1725.0,5 1725.0,0 1745.0,0 1745.0,5 1765.0,5 1765.0,0 1785.0,0 1785.0,5 1805.0,5 1805.0,0 1825.0,0 1825.0,5 1845.0,5 1845.0,0 1865.0,0 1865.0,5 1885.0,5 1885.0,0 1905.0,0 1905.0,5 1925.0,5 1925.0,0 1945.0,0 1945.0,5 1950.0,5 1950.0,25 1955.0,25 1955.0,45 1950.0,45 1950.0,65 1955.0,65 1955.0,85 1950.0,85 1950.0,105 1955.0,105 1955.0,110 1715.0,110 1715.0,105 1720.0,105 1720.0,85 1715.0,85 1715.0,65 1720.0,65 1720.0,45 1715.0,45 1715.0,25 1720.0,25 1720.0,5" style="fill:none;stroke:red;stroke-width:1"/>

<polygon points="1965,5 1970.0,5 1990.0,5 1990.0,0 2010.0,0 2010.0,5 2030.0,5 2030.0,0 2050.0,0 2050.0,5 2070.0,5 2070.0,0 2090.0,0 2090.0,5 2110.0,5 2110.0,0 2130.0,0 2130.0,5 2150.0,5 2150.0,0 2170.0,0 2170.0,5 2190.0,5 2195.0,5 2200.0,5 2200.0,25 2195.0,25 2195.0,45 2200.0,45 2200.0,65 2195.0,65 2195.0,85 2200.0,85 2200.0,105 2195.0,105 2195.0,110 1965.0,110 1965.0,105 1960.0,105 1960.0,85 1965.0,85 1965.0,65 1960.0,65 1960.0,45 1965.0,45 1965.0,25 1960.0,25 1960.0,5 1965.0,5" style="fill:none;stroke:red;stroke-width:1"/>

<polygon points="2210,5 2215.0,5 2235.0,5 2235.0,0 2255.0,0 2255.0,5 2275.0,5 2275.0,0 2295.0,0 2295.0,5 2315.0,5 2315.0,0 2335.0,0 2335.0,5 2355.0,5 2355.0,0 2375.0,0 2375.0,5 2395.0,5 2395.0,0 2415.0,0 2415.0,5 2435.0,5 2440.0,5 2445.0,5 2445.0,25 2440.0,25 2440.0,45 2445.0,45 2445.0,65 2440.0,65 2440.0,85 2445.0,85 2445.0,105 2440.0,105 2440.0,110 2210.0,110 2210.0,105 2205.0,105 2205.0,85 2210.0,85 2210.0,65 2205.0,65 2205.0,45 2210.0,45 2210.0,25 2205.0,25 2205.0,5 2210.0,5" style="fill:none;stroke:red;stroke-width:1"/>

<polygon points="2450,0 2455,0 2455,5 2475,5 2475,0 2495,0 2495,5 2515,5 2515,0 2535,0 2535,5 2555,5 2555,0 2575,0 2575,5 2595,5 2595,0 2615,0 2615,5 2635,5 2635,0 2655,0 2655,5 2675,5 2675,0 2680,0 2680,5 2680,25 2675,25 2675,45 2680,45 2680,65 2675,65 2675,85 2680,85 2680,105 2675,105 2675,125 2680,125 2680,145 2675,145 2675,165 2680,165 2680,185 2675,185 2675,205 2680,205 2680,225 2680,230 2675,230 2675,225 2655,225 2655,230 2635,230 2635,225 2615,225 2615,230 2595,230 2595,225 2575,225 2575,230 2555,230 2555,225 2535,225 2535,230 2515,230 2515,225 2495,225 2495,230 2475,230 2475,225 2455,225 2455,230 2450,230 2450,225 2450,205 2455,205 2455,185 2450,185 2450,165 2455,165 2455,145 2450,145 2450,125 2455,125 2455,105 2450,105 2450,85 2455,85 2455,65 2450,65 2450,45 2455,45 2455,25 2450,25 2450,5 2450,0" style="fill:none;stroke:red;stroke-width:1"/>

<polygon points="2685,5 2690,5 2690,0 2710,0 2710,5 2730,5 2730,0 2750,0 2750,5 2770,5 2770,0 2790,0 2790,5 2810,5 2810,0 2830,0 2830,5 2850,5 2850,0 2870,0 2870,5 2890,5 2890,0 2910,0 2910,5 2915,5 2915,10.0 2910,10.0 2910,30.0 2915,30.0 2915,50.0 2910,50.0 2910,70.0 2915,70.0 2915,90.0 2910,90.0 2910,110.0 2915,110.0 2915,115.0 2915,120.0 2685,120.0 2685,115.0 2685,110.0 2690,110.0 2690,90.0 2685,90.0 2685,70.0 2690,70.0 2690,50.0 2685,50.0 2685,30.0 2690,30.0 2690,10.0 2685,10.0 2685,5.0" style="fill:none;stroke:red;stroke-width:1"/>

<polygon points="2920,5 2925,5 2925,0 2945,0 2945,5 2965,5 2965,0 2985,0 2985,5 3005,5 3005,0 3025,0 3025,5 3045,5 3045,0 3065,0 3065,5 3085,5 3085,0 3105,0 3105,5 3125,5 3125,0 3145,0 3145,5 3150,5 3150,10.0 3145,10.0 3145,30.0 3150,30.0 3150,50.0 3145,50.0 3145,70.0 3150,70.0 3150,90.0 3145,90.0 3145,110.0 3150,110.0 3150,115.0 3150,120.0 2920,120.0 2920,115.0 2920,110.0 2925,110.0 2925,90.0 2920,90.0 2920,70.0 2925,70.0 2925,50.0 2920,50.0 2920,30.0 2925,30.0 2925,10.0 2920,10.0 2920,5.0" style="fill:none;stroke:red;stroke-width:1"/>

<polygon points="3160,5 3180,5 3180,0 3200,0 3200,5 3220,5 3220,0 3240,0 3240,5 3260,5 3260,0 3280,0 3280,5 3300,5 3300,0 3320,0 3320,5 3340,5 3340,0 3360,0 3360,5 3380,5 3380,10.0 3385,10.0 3385,30.0 3380,30.0 3380,50.0 3385,50.0 3385,70.0 3380,70.0 3380,90.0 3385,90.0 3385,110.0 3380,110.0 3380,115.0 3380,120.0 3160,120.0 3160,115.0 3160,110.0 3155,110.0 3155,90.0 3160,90.0 3160,70.0 3155,70.0 3155,50.0 3160,50.0 3160,30.0 3155,30.0 3155,10.0 3160,10.0 3160,5.0" style="fill:none;stroke:red;stroke-width:1"/>

<polygon points="3395,5 3415,5 3415,0 3435,0 3435,5 3455,5 3455,0 3475,0 3475,5 3495,5 3495,0 3515,0 3515,5 3535,5 3535,0 3555,0 3555,5 3575,5 3575,0 3595,0 3595,5 3615,5 3615,10.0 3620,10.0 3620,30.0 3615,30.0 3615,50.0 3620,50.0 3620,70.0 3615,70.0 3615,90.0 3620,90.0 3620,110.0 3615,110.0 3615,115.0 3615,120.0 3395,120.0 3395,115.0 3395,110.0 3390,110.0 3390,90.0 3395,90.0 3395,70.0 3390,70.0 3390,50.0 3395,50.0 3395,30.0 3390,30.0 3390,10.0 3395,10.0 3395,5.0" style="fill:none;stroke:red;stroke-width:1"/>

</svg>
