<svg width=" 3503 " height=" 210 ">

<polygon points="0,0 5,0 13.5,0 13.5,5 33.5,5 33.5,0 53.5,0 53.5,5 73.5,5 73.5,0 93.5,0 93.5,5 113.5,5 113.5,0 133.5,0 133.5,5 153.5,5 153.5,0 173.5,0 173.5,5 193.5,5 193.5,0 213.5,0 213.5,5 233.5,5 233.5,0 242.0,0 247.0,0 247.0,5 247.0,15.0 247.0,35.0 242.0,35.0 242.0,55.0 247.0,55.0 247.0,75.0 242.0,75.0 242.0,95.0 247.0,95.0 247.0,115.0 242.0,115.0 242.0,135.0 247.0,135.0 247.0,155.0 242.0,155.0 242.0,175.0 247.0,175.0 247.0,195.0 247.0,205.0 247.0,210.0 242.0,210.0 233.5,210.0 233.5,205.0 213.5,205.0 213.5,210.0 193.5,210.0 193.5,205.0 173.5,205.0 173.5,210.0 153.5,210.0 153.5,205.0 133.5,205.0 133.5,210.0 113.5,210.0 113.5,205.0 93.5,205.0 93.5,210.0 73.5,210.0 73.5,205.0 53.5,205.0 53.5,210.0 33.5,210.0 33.5,205.0 13.5,205.0 13.5,210.0 5.0,210.0 0.0,210.0 0.0,205.0 0.0,195.0 0.0,175.0 5.0,175.0 5.0,155.0 0.0,155.0 0.0,135.0 5.0,135.0 5.0,115.0 0.0,115.0 0.0,95.0 5.0,95.0 5.0,75.0 0.0,75.0 0.0,55.0 5.0,55.0 5.0,35.0 0.0,35.0 0.0,15.0 0.0,5.0 0.0,0.0" style="fill:none;stroke:red;stroke-width:1"/>

<polygon points="257,5 265.5,5 265.5,0 285.5,0 285.5,5 305.5,5 305.5,0 325.5,0 325.5,5 345.5,5 345.5,0 365.5,0 365.5,5 385.5,5 385.5,0 405.5,0 405.5,5 425.5,5 425.5,0 445.5,0 445.5,5 465.5,5 465.5,0 485.5,0 485.5,5 494.0,5 494.0,25 499.0,25 499.0,45 494.0,45 494.0,65 499.0,65 499.0,85 494.0,85 494.0,105 499.0,105 499.0,110 252.0,110 252.0,105 257.0,105 257.0,85 252.0,85 252.0,65 257.0,65 257.0,45 252.0,45 252.0,25 257.0,25 257.0,5" style="fill:none;stroke:red;stroke-width:1"/>

<polygon points="509,5 517.5,5 517.5,0 537.5,0 537.5,5 557.5,5 557.5,0 577.5,0 577.5,5 597.5,5 597.5,0 617.5,0 617.5,5 637.5,5 637.5,0 657.5,0 657.5,5 677.5,5 677.5,0 697.5,0 697.5,5 717.5,5 717.5,0 737.5,0 737.5,5 746.0,5 746.0,25 751.0,25 751.0,45 746.0,45 746.0,65 751.0,65 751.0,85 746.0,85 746.0,105 751.0,105 751.0,110 504.0,110 504.0,105 509.0,105 509.0,85 504.0,85 504.0,65 509.0,65 509.0,45 504.0,45 504.0,25 509.0,25 509.0,5" style="fill:none;stroke:red;stroke-width:1"/>

<polygon points="761,5 771.0,5 791.0,5 791.0,0 811.0,0 811.0,5 831.0,5 831.0,0 851.0,0 851.0,5 871.0,5 871.0,0 891.0,0 891.0,5 911.0,5 911.0,0 931.0,0 931.0,5 951.0,5 961.0,5 966.0,5 966.0,25 961.0,25 961.0,45 966.0,45 966.0,65 961.0,65 961.0,85 966.0,85 966.0,105 961.0,105 961.0,110 761.0,110 761.0,105 756.0,105 756.0,85 761.0,85 761.0,65 756.0,65 756.0,45 761.0,45 761.0,25 756.0,25 756.0,5 761.0,5" style="fill:none;stroke:red;stroke-width:1"/>

<polygon points="976,5 986.0,5 1006.0,5 1006.0,0 1026.0,0 1026.0,5 1046.0,5 1046.0,0 1066.0,0 1066.0,5 1086.0,5 1086.0,0 1106.0,0 1106.0,5 1126.0,5 1126.0,0 1146.0,0 1146.0,5 1166.0,5 1176.0,5 1181.0,5 1181.0,25 1176.0,25 1176.0,45 1181.0,45 1181.0,65 1176.0,65 1176.0,85 1181.0,85 1181.0,105 1176.0,105 1176.0,110 976.0,110 976.0,105 971.0,105 971.0,85 976.0,85 976.0,65 971.0,65 971.0,45 976.0,45 976.0,25 971.0,25 971.0,5 976.0,5" style="fill:none;stroke:red;stroke-width:1"/>

<polygon points="1186,0 1191,0 1199.5,0 1199.5,5 1219.5,5 1219.5,0 1239.5,0 1239.5,5 1259.5,5 1259.5,0 1279.5,0 1279.5,5 1299.5,5 1299.5,0 1319.5,0 1319.5,5 1339.5,5 1339.5,0 1359.5,0 1359.5,5 1379.5,5 1379.5,0 1399.5,0 1399.5,5 1419.5,5 1419.5,0 1428.0,0 1433.0,0 1433.0,5 1433.0,15.0 1433.0,35.0 1428.0,35.0 1428.0,55.0 1433.0,55.0 1433.0,75.0 1428.0,75.0 1428.0,95.0 1433.0,95.0 1433.0,115.0 1428.0,115.0 1428.0,135.0 1433.0,135.0 1433.0,155.0 1428.0,155.0 1428.0,175.0 1433.0,175.0 1433.0,195.0 1433.0,205.0 1433.0,210.0 1428.0,210.0 1419.5,210.0 1419.5,205.0 1399.5,205.0 1399.5,210.0 1379.5,210.0 1379.5,205.0 1359.5,205.0 1359.5,210.0 1339.5,210.0 1339.5,205.0 1319.5,205.0 1319.5,210.0 1299.5,210.0 1299.5,205.0 1279.5,205.0 1279.5,210.0 1259.5,210.0 1259.5,205.0 1239.5,205.0 1239.5,210.0 1219.5,210.0 1219.5,205.0 1199.5,205.0 1199.5,210.0 1191.0,210.0 1186.0,210.0 1186.0,205.0 1186.0,195.0 1186.0,175.0 1191.0,175.0 1191.0,155.0 1186.0,155.0 1186.0,135.0 1191.0,135.0 1191.0,115.0 1186.0,115.0 1186.0,95.0 1191.0,95.0 1191.0,75.0 1186.0,75.0 1186.0,55.0 1191.0,55.0 1191.0,35.0 1186.0,35.0 1186.0,15.0 1186.0,5.0 1186.0,0.0" style="fill:none;stroke:red;stroke-width:1"/>

<polygon points="1443,5 1451.5,5 1451.5,0 1471.5,0 1471.5,5 1491.5,5 1491.5,0 1511.5,0 1511.5,5 1531.5,5 1531.5,0 1551.5,0 1551.5,5 1571.5,5 1571.5,0 1591.5,0 1591.5,5 1611.5,5 1611.5,0 1631.5,0 1631.5,5 1651.5,5 1651.5,0 1671.5,0 1671.5,5 1680.0,5 1680.0,25 1685.0,25 1685.0,45 1680.0,45 1680.0,65 1685.0,65 1685.0,85 1680.0,85 1680.0,105 1685.0,105 1685.0,110 1438.0,110 1438.0,105 1443.0,105 1443.0,85 1438.0,85 1438.0,65 1443.0,65 1443.0,45 1438.0,45 1438.0,25 1443.0,25 1443.0,5" style="fill:none;stroke:red;stroke-width:1"/>

<polygon points="1695,5 1703.5,5 1703.5,0 1723.5,0 1723.5,5 1743.5,5 1743.5,0 1763.5,0 1763.5,5 1783.5,5 1783.5,0 1803.5,0 1803.5,5 1823.5,5 1823.5,0 1843.5,0 1843.5,5 1863.5,5 1863.5,0 1883.5,0 1883.5,5 1903.5,5 1903.5,0 1923.5,0 1923.5,5 1932.0,5 1932.0,25 1937.0,25 1937.0,45 1932.0,45 1932.0,65 1937.0,65 1937.0,85 1932.0,85 1932.0,105 1937.0,105 1937.0,110 1690.0,110 1690.0,105 1695.0,105 1695.0,85 1690.0,85 1690.0,65 1695.0,65 1695.0,45 1690.0,45 1690.0,25 1695.0,25 1695.0,5" style="fill:none;stroke:red;stroke-width:1"/>

<polygon points="1947,5 1957.0,5 1977.0,5 1977.0,0 1997.0,0 1997.0,5 2017.0,5 2017.0,0 2037.0,0 2037.0,5 2057.0,5 2057.0,0 2077.0,0 2077.0,5 2097.0,5 2097.0,0 2117.0,0 2117.0,5 2137.0,5 2147.0,5 2152.0,5 2152.0,25 2147.0,25 2147.0,45 2152.0,45 2152.0,65 2147.0,65 2147.0,85 2152.0,85 2152.0,105 2147.0,105 2147.0,110 1947.0,110 1947.0,105 1942.0,105 1942.0,85 1947.0,85 1947.0,65 1942.0,65 1942.0,45 1947.0,45 1947.0,25 1942.0,25 1942.0,5 1947.0,5" style="fill:none;stroke:red;stroke-width:1"/>

<polygon points="2162,5 2172.0,5 2192.0,5 2192.0,0 2212.0,0 2212.0,5 2232.0,5 2232.0,0 2252.0,0 2252.0,5 2272.0,5 2272.0,0 2292.0,0 2292.0,5 2312.0,5 2312.0,0 2332.0,0 2332.0,5 2352.0,5 2362.0,5 2367.0,5 2367.0,25 2362.0,25 2362.0,45 2367.0,45 2367.0,65 2362.0,65 2362.0,85 2367.0,85 2367.0,105 2362.0,105 2362.0,110 2162.0,110 2162.0,105 2157.0,105 2157.0,85 2162.0,85 2162.0,65 2157.0,65 2157.0,45 2162.0,45 2162.0,25 2157.0,25 2157.0,5 2162.0,5" style="fill:none;stroke:red;stroke-width:1"/>

<polygon points="2372,0 2377,0 2380.5,0 2380.5,5 2400.5,5 2400.5,0 2420.5,0 2420.5,5 2440.5,5 2440.5,0 2460.5,0 2460.5,5 2480.5,5 2480.5,0 2500.5,0 2500.5,5 2520.5,5 2520.5,0 2540.5,0 2540.5,5 2560.5,5 2560.5,0 2580.5,0 2580.5,5 2600.5,5 2600.5,0 2604.0,0 2609.0,0 2609.0,5 2609.0,10.0 2609.0,30.0 2604.0,30.0 2604.0,50.0 2609.0,50.0 2609.0,70.0 2604.0,70.0 2604.0,90.0 2609.0,90.0 2609.0,110.0 2604.0,110.0 2604.0,130.0 2609.0,130.0 2609.0,150.0 2604.0,150.0 2604.0,170.0 2609.0,170.0 2609.0,190.0 2609.0,195.0 2609.0,200.0 2604.0,200.0 2600.5,200.0 2600.5,195.0 2580.5,195.0 2580.5,200.0 2560.5,200.0 2560.5,195.0 2540.5,195.0 2540.5,200.0 2520.5,200.0 2520.5,195.0 2500.5,195.0 2500.5,200.0 2480.5,200.0 2480.5,195.0 2460.5,195.0 2460.5,200.0 2440.5,200.0 2440.5,195.0 2420.5,195.0 2420.5,200.0 2400.5,200.0 2400.5,195.0 2380.5,195.0 2380.5,200.0 2377.0,200.0 2372.0,200.0 2372.0,195.0 2372.0,190.0 2372.0,170.0 2377.0,170.0 2377.0,150.0 2372.0,150.0 2372.0,130.0 2377.0,130.0 2377.0,110.0 2372.0,110.0 2372.0,90.0 2377.0,90.0 2377.0,70.0 2372.0,70.0 2372.0,50.0 2377.0,50.0 2377.0,30.0 2372.0,30.0 2372.0,10.0 2372.0,5.0 2372.0,0.0" style="fill:none;stroke:red;stroke-width:1"/>

<polygon points="2614,5 2619,5 2622.5,5 2622.5,0 2642.5,0 2642.5,5 2662.5,5 2662.5,0 2682.5,0 2682.5,5 2702.5,5 2702.5,0 2722.5,0 2722.5,5 2742.5,5 2742.5,0 2762.5,0 2762.5,5 2782.5,5 2782.5,0 2802.5,0 2802.5,5 2822.5,5 2822.5,0 2842.5,0 2842.5,5 2846.0,5 2851.0,5 2851.0,15.0 2846.0,15.0 2846.0,35.0 2851.0,35.0 2851.0,55.0 2846.0,55.0 2846.0,75.0 2851.0,75.0 2851.0,95.0 2846.0,95.0 2846.0,115.0 2851.0,115.0 2851.0,125.0 2851.0,130.0 2614.0,130.0 2614.0,125.0 2614.0,115.0 2619.0,115.0 2619.0,95.0 2614.0,95.0 2614.0,75.0 2619.0,75.0 2619.0,55.0 2614.0,55.0 2614.0,35.0 2619.0,35.0 2619.0,15.0 2614.0,15.0 2614.0,5.0" style="fill:none;stroke:red;stroke-width:1"/>

<polygon points="2856,5 2861,5 2864.5,5 2864.5,0 2884.5,0 2884.5,5 2904.5,5 2904.5,0 2924.5,0 2924.5,5 2944.5,5 2944.5,0 2964.5,0 2964.5,5 2984.5,5 2984.5,0 3004.5,0 3004.5,5 3024.5,5 3024.5,0 3044.5,0 3044.5,5 3064.5,5 3064.5,0 3084.5,0 3084.5,5 3088.0,5 3093.0,5 3093.0,15.0 3088.0,15.0 3088.0,35.0 3093.0,35.0 3093.0,55.0 3088.0,55.0 3088.0,75.0 3093.0,75.0 3093.0,95.0 3088.0,95.0 3088.0,115.0 3093.0,115.0 3093.0,125.0 3093.0,130.0 2856.0,130.0 2856.0,125.0 2856.0,115.0 2861.0,115.0 2861.0,95.0 2856.0,95.0 2856.0,75.0 2861.0,75.0 2861.0,55.0 2856.0,55.0 2856.0,35.0 2861.0,35.0 2861.0,15.0 2856.0,15.0 2856.0,5.0" style="fill:none;stroke:red;stroke-width:1"/>

<polygon points="3103,5 3108.0,5 3128.0,5 3128.0,0 3148.0,0 3148.0,5 3168.0,5 3168.0,0 3188.0,0 3188.0,5 3208.0,5 3208.0,0 3228.0,0 3228.0,5 3248.0,5 3248.0,0 3268.0,0 3268.0,5 3288.0,5 3293.0,5 3293.0,15.0 3298.0,15.0 3298.0,35.0 3293.0,35.0 3293.0,55.0 3298.0,55.0 3298.0,75.0 3293.0,75.0 3293.0,95.0 3298.0,95.0 3298.0,115.0 3293.0,115.0 3293.0,125.0 3293.0,130.0 3103.0,130.0 3103.0,125.0 3103.0,115.0 3098.0,115.0 3098.0,95.0 3103.0,95.0 3103.0,75.0 3098.0,75.0 3098.0,55.0 3103.0,55.0 3103.0,35.0 3098.0,35.0 3098.0,15.0 3103.0,15.0 3103.0,5.0" style="fill:none;stroke:red;stroke-width:1"/>

<polygon points="3308,5 3313.0,5 3333.0,5 3333.0,0 3353.0,0 3353.0,5 3373.0,5 3373.0,0 3393.0,0 3393.0,5 3413.0,5 3413.0,0 3433.0,0 3433.0,5 3453.0,5 3453.0,0 3473.0,0 3473.0,5 3493.0,5 3498.0,5 3498.0,15.0 3503.0,15.0 3503.0,35.0 3498.0,35.0 3498.0,55.0 3503.0,55.0 3503.0,75.0 3498.0,75.0 3498.0,95.0 3503.0,95.0 3503.0,115.0 3498.0,115.0 3498.0,125.0 3498.0,130.0 3308.0,130.0 3308.0,125.0 3308.0,115.0 3303.0,115.0 3303.0,95.0 3308.0,95.0 3308.0,75.0 3303.0,75.0 3303.0,55.0 3308.0,55.0 3308.0,35.0 3303.0,35.0 3303.0,15.0 3308.0,15.0 3308.0,5.0" style="fill:none;stroke:red;stroke-width:1"/>

</svg>
