<svg width=" 3470 " height=" 230 ">

<polygon points="0,0 5,0 5,5 25,5 25,0 45,0 45,5 65,5 65,0 85,0 85,5 105,5 105,0 125,0 125,5 145,5 145,0 165,0 165,5 185,5 185,0 205,0 205,5 225,5 225,0 230,0 230,5 230,25 225,25 225,45 230,45 230,65 225,65 225,85 230,85 230,105 225,105 225,125 230,125 230,145 225,145 225,165 230,165 230,185 225,185 225,205 230,205 230,225 230,230 225,230 225,225 205,225 205,230 185,230 185,225 165,225 165,230 145,230 145,225 125,225 125,230 105,230 105,225 85,225 85,230 65,230 65,225 45,225 45,230 25,230 25,225 5,225 5,230 0,230 0,225 0,205 5,205 5,185 0,185 0,165 5,165 5,145 0,145 0,125 5,125 5,105 0,105 0,85 5,85 5,65 0,65 0,45 5,45 5,25 0,25 0,5 0,0" style="fill:none;stroke:red;stroke-width:1"/>

<polygon points="240,5 240,0 260,0 260,5 280,5 280,0 300,0 300,5 320,5 320,0 340,0 340,5 360,5 360,0 380,0 380,5 400,5 400,0 420,0 420,5 440,5 440,0 460,0 460,5 460,25 465,25 465,45 460,45 460,65 465,65 465,85 460,85 460,105 465,105 465,110 235,110 235,105 240,105 240,85 235,85 235,65 240,65 240,45 235,45 235,25 240,25 240,5" style="fill:none;stroke:red;stroke-width:1"/>

<polygon points="475,5 475,0 495,0 495,5 515,5 515,0 535,0 535,5 555,5 555,0 575,0 575,5 595,5 595,0 615,0 615,5 635,5 635,0 655,0 655,5 675,5 675,0 695,0 695,5 695,25 700,25 700,45 695,45 695,65 700,65 700,85 695,85 695,105 700,105 700,110 470,110 470,105 475,105 475,85 470,85 470,65 475,65 475,45 470,45 470,25 475,25 475,5" style="fill:none;stroke:red;stroke-width:1"/>

<polygon points="710,5 730,5 730,0 750,0 750,5 770,5 770,0 790,0 790,5 810,5 810,0 830,0 830,5 850,5 850,0 870,0 870,5 890,5 890,0 910,0 910,5 930,5 935,5 935,25 930,25 930,45 935,45 935,65 930,65 930,85 935,85 935,105 930,105 930,110 710,110 710,105 705,105 705,85 710,85 710,65 705,65 705,45 710,45 710,25 705,25 705,5 710,5" style="fill:none;stroke:red;stroke-width:1"/>

<polygon points="945,5 965,5 965,0 985,0 985,5 1005,5 1005,0 1025,0 1025,5 1045,5 1045,0 1065,0 1065,5 1085,5 1085,0 1105,0 1105,5 1125,5 1125,0 1145,0 1145,5 1165,5 1170,5 1170,25 1165,25 1165,45 1170,45 1170,65 1165,65 1165,85 1170,85 1170,105 1165,105 1165,110 945,110 945,105 940,105 940,85 945,85 945,65 940,65 940,45 945,45 945,25 940,25 940,5 945,5" style="fill:none;stroke:red;stroke-width:1"/>

<polygon points="1175,0 1180,0 1180,5 1200,5 1200,0 1220,0 1220,5 1240,5 1240,0 1260,0 1260,5 1280,5 1280,0 1300,0 1300,5 1320,5 1320,0 1340,0 1340,5 1360,5 1360,0 1380,0 1380,5 1400,5 1400,0 1405,0 1405,5 1405,25 1400,25 1400,45 1405,45 1405,65 1400,65 1400,85 1405,85 1405,105 1400,105 1400,125 1405,125 1405,145 1400,145 1400,165 1405,165 1405,185 1400,185 1400,205 1405,205 1405,225 1405,230 1400,230 1400,225 1380,225 1380,230 1360,230 1360,225 1340,225 1340,230 1320,230 1320,225 1300,225 1300,230 1280,230 1280,225 1260,225 1260,230 1240,230 1240,225 1220,225 1220,230 1200,230 1200,225 1180,225 1180,230 1175,230 1175,225 1175,205 1180,205 1180,185 1175,185 1175,165 1180,165 1180,145 1175,145 1175,125 1180,125 1180,105 1175,105 1175,85 1180,85 1180,65 1175,65 1175,45 1180,45 1180,25 1175,25 1175,5 1175,0" style="fill:none;stroke:red;stroke-width:1"/>

<polygon points="1415,5 1415,0 1435,0 1435,5 1455,5 1455,0 1475,0 1475,5 1495,5 1495,0 1515,0 1515,5 1535,5 1535,0 1555,0 1555,5 1575,5 1575,0 1595,0 1595,5 1615,5 1615,0 1635,0 1635,5 1635,25 1640,25 1640,45 1635,45 1635,65 1640,65 1640,85 1635,85 1635,105 1640,105 1640,110 1410,110 1410,105 1415,105 1415,85 1410,85 1410,65 1415,65 1415,45 1410,45 1410,25 1415,25 1415,5" style="fill:none;stroke:red;stroke-width:1"/>

<polygon points="1650,5 1650,0 1670,0 1670,5 1690,5 1690,0 1710,0 1710,5 1730,5 1730,0 1750,0 1750,5 1770,5 1770,0 1790,0 1790,5 1810,5 1810,0 1830,0 1830,5 1850,5 1850,0 1870,0 1870,5 1870,25 1875,25 1875,45 1870,45 1870,65 1875,65 1875,85 1870,85 1870,105 1875,105 1875,110 1645,110 1645,105 1650,105 1650,85 1645,85 1645,65 1650,65 1650,45 1645,45 1645,25 1650,25 1650,5" style="fill:none;stroke:red;stroke-width:1"/>

<polygon points="1885,5 1905,5 1905,0 1925,0 1925,5 1945,5 1945,0 1965,0 1965,5 1985,5 1985,0 2005,0 2005,5 2025,5 2025,0 2045,0 2045,5 2065,5 2065,0 2085,0 2085,5 2105,5 2110,5 2110,25 2105,25 2105,45 2110,45 2110,65 2105,65 2105,85 2110,85 2110,105 2105,105 2105,110 1885,110 1885,105 1880,105 1880,85 1885,85 1885,65 1880,65 1880,45 1885,45 1885,25 1880,25 1880,5 1885,5" style="fill:none;stroke:red;stroke-width:1"/>

<polygon points="2120,5 2140,5 2140,0 2160,0 2160,5 2180,5 2180,0 2200,0 2200,5 2220,5 2220,0 2240,0 2240,5 2260,5 2260,0 2280,0 2280,5 2300,5 2300,0 2320,0 2320,5 2340,5 2345,5 2345,25 2340,25 2340,45 2345,45 2345,65 2340,65 2340,85 2345,85 2345,105 2340,105 2340,110 2120,110 2120,105 2115,105 2115,85 2120,85 2120,65 2115,65 2115,45 2120,45 2120,25 2115,25 2115,5 2120,5" style="fill:none;stroke:red;stroke-width:1"/>

<polygon points="2350,0 2355,0 2370.0,0 2370.0,5 2390.0,5 2390.0,0 2410.0,0 2410.0,5 2430.0,5 2430.0,0 2450.0,0 2450.0,5 2470.0,5 2470.0,0 2490.0,0 2490.0,5 2510.0,5 2510.0,0 2530.0,0 2530.0,5 2550.0,5 2550.0,0 2565.0,0 2570.0,0 2570.0,5 2570.0,20.0 2570.0,40.0 2565.0,40.0 2565.0,60.0 2570.0,60.0 2570.0,80.0 2565.0,80.0 2565.0,100.0 2570.0,100.0 2570.0,120.0 2565.0,120.0 2565.0,140.0 2570.0,140.0 2570.0,160.0 2565.0,160.0 2565.0,180.0 2570.0,180.0 2570.0,200.0 2570.0,215.0 2570.0,220.0 2565.0,220.0 2550.0,220.0 2550.0,215.0 2530.0,215.0 2530.0,220.0 2510.0,220.0 2510.0,215.0 2490.0,215.0 2490.0,220.0 2470.0,220.0 2470.0,215.0 2450.0,215.0 2450.0,220.0 2430.0,220.0 2430.0,215.0 2410.0,215.0 2410.0,220.0 2390.0,220.0 2390.0,215.0 2370.0,215.0 2370.0,220.0 2355.0,220.0 2350.0,220.0 2350.0,215.0 2350.0,200.0 2350.0,180.0 2355.0,180.0 2355.0,160.0 2350.0,160.0 2350.0,140.0 2355.0,140.0 2355.0,120.0 2350.0,120.0 2350.0,100.0 2355.0,100.0 2355.0,80.0 2350.0,80.0 2350.0,60.0 2355.0,60.0 2355.0,40.0 2350.0,40.0 2350.0,20.0 2350.0,5.0 2350.0,0.0" style="fill:none;stroke:red;stroke-width:1"/>

<polygon points="2575,5 2580,5 2595.0,5 2595.0,0 2615.0,0 2615.0,5 2635.0,5 2635.0,0 2655.0,0 2655.0,5 2675.0,5 2675.0,0 2695.0,0 2695.0,5 2715.0,5 2715.0,0 2735.0,0 2735.0,5 2755.0,5 2755.0,0 2775.0,0 2775.0,5 2790.0,5 2795.0,5 2795.0,10.0 2790.0,10.0 2790.0,30.0 2795.0,30.0 2795.0,50.0 2790.0,50.0 2790.0,70.0 2795.0,70.0 2795.0,90.0 2790.0,90.0 2790.0,110.0 2795.0,110.0 2795.0,115.0 2795.0,120.0 2575.0,120.0 2575.0,115.0 2575.0,110.0 2580.0,110.0 2580.0,90.0 2575.0,90.0 2575.0,70.0 2580.0,70.0 2580.0,50.0 2575.0,50.0 2575.0,30.0 2580.0,30.0 2580.0,10.0 2575.0,10.0 2575.0,5.0" style="fill:none;stroke:red;stroke-width:1"/>

<polygon points="2800,5 2805,5 2820.0,5 2820.0,0 2840.0,0 2840.0,5 2860.0,5 2860.0,0 2880.0,0 2880.0,5 2900.0,5 2900.0,0 2920.0,0 2920.0,5 2940.0,5 2940.0,0 2960.0,0 2960.0,5 2980.0,5 2980.0,0 3000.0,0 3000.0,5 3015.0,5 3020.0,5 3020.0,10.0 3015.0,10.0 3015.0,30.0 3020.0,30.0 3020.0,50.0 3015.0,50.0 3015.0,70.0 3020.0,70.0 3020.0,90.0 3015.0,90.0 3015.0,110.0 3020.0,110.0 3020.0,115.0 3020.0,120.0 2800.0,120.0 2800.0,115.0 2800.0,110.0 2805.0,110.0 2805.0,90.0 2800.0,90.0 2800.0,70.0 2805.0,70.0 2805.0,50.0 2800.0,50.0 2800.0,30.0 2805.0,30.0 2805.0,10.0 2800.0,10.0 2800.0,5.0" style="fill:none;stroke:red;stroke-width:1"/>

<polygon points="3030,5 3045.0,5 3065.0,5 3065.0,0 3085.0,0 3085.0,5 3105.0,5 3105.0,0 3125.0,0 3125.0,5 3145.0,5 3145.0,0 3165.0,0 3165.0,5 3185.0,5 3185.0,0 3205.0,0 3205.0,5 3225.0,5 3240.0,5 3240.0,10.0 3245.0,10.0 3245.0,30.0 3240.0,30.0 3240.0,50.0 3245.0,50.0 3245.0,70.0 3240.0,70.0 3240.0,90.0 3245.0,90.0 3245.0,110.0 3240.0,110.0 3240.0,115.0 3240.0,120.0 3030.0,120.0 3030.0,115.0 3030.0,110.0 3025.0,110.0 3025.0,90.0 3030.0,90.0 3030.0,70.0 3025.0,70.0 3025.0,50.0 3030.0,50.0 3030.0,30.0 3025.0,30.0 3025.0,10.0 3030.0,10.0 3030.0,5.0" style="fill:none;stroke:red;stroke-width:1"/>

<polygon points="3255,5 3270.0,5 3290.0,5 3290.0,0 3310.0,0 3310.0,5 3330.0,5 3330.0,0 3350.0,0 3350.0,5 3370.0,5 3370.0,0 3390.0,0 3390.0,5 3410.0,5 3410.0,0 3430.0,0 3430.0,5 3450.0,5 3465.0,5 3465.0,10.0 3470.0,10.0 3470.0,30.0 3465.0,30.0 3465.0,50.0 3470.0,50.0 3470.0,70.0 3465.0,70.0 3465.0,90.0 3470.0,90.0 3470.0,110.0 3465.0,110.0 3465.0,115.0 3465.0,120.0 3255.0,120.0 3255.0,115.0 3255.0,110.0 3250.0,110.0 3250.0,90.0 3255.0,90.0 3255.0,70.0 3250.0,70.0 3250.0,50.0 3255.0,50.0 3255.0,30.0 3250.0,30.0 3250.0,10.0 3255.0,10.0 3255.0,5.0" style="fill:none;stroke:red;stroke-width:1"/>

</svg>
